<?xml version="1.0" standalone="no"?><!DOCTYPE svg PUBLIC "-//W3C//DTD SVG 1.1//EN" "http://www.w3.org/Graphics/SVG/1.1/DTD/svg11.dtd"><svg t="1715091231676" class="icon" viewBox="0 0 1024 1024" version="1.1" xmlns="http://www.w3.org/2000/svg" p-id="57907" xmlns:xlink="http://www.w3.org/1999/xlink" width="200" height="200"><path d="M653.88544 0a92.16 92.16 0 0 1 65.09568 26.9312l187.61728 187.21792a92.16 92.16 0 0 1 27.05408 65.2288v120.6272A80.10752 80.10752 0 0 1 1013.76 480.09216v319.7952a80.10752 80.10752 0 0 1-77.55776 80.06656l-2.54976 0.03072v48.00512c0 53.02272-43.02848 96-96.12288 96H196.7104c-53.0944 0-96.12288-42.97728-96.12288-96v-48.00512A80.10752 80.10752 0 0 1 20.48 799.8976v-319.7952a80.10752 80.10752 0 0 1 77.55776-80.06656l2.54976-0.04096V96C100.58752 42.97728 143.616 0 196.7104 0h457.17504zM837.5296 879.99488H196.7104v17.28512a30.72 30.72 0 0 0 30.72 30.72h579.3792a30.72 30.72 0 0 0 30.72-30.72v-17.28512zM619.75552 559.49312h-42.86464l-19.3536 88.65792c-0.8192 3.29728-1.42336 6.7584-1.792 10.40384-0.37888 3.6352-0.5632 7.40352-0.5632 11.30496 0 17.2544 5.39648 30.5152 16.19968 39.77216 10.79296 9.25696 26.28608 13.89568 46.45888 13.89568 21.90336 0 38.92224-5.14048 51.07712-15.42144 12.14464-10.27072 20.55168-26.65472 25.1904-49.152l20.48-99.46112h-41.1648l-19.3536 87.53152c-3.82976 17.17248-8.25344 29.06112-13.28128 35.65568-5.0176 6.6048-11.80672 9.90208-20.35712 9.90208-6.37952 0-11.73504-2.05824-16.08704-6.18496a20.11136 20.11136 0 0 1-6.53312-15.18592 102.33856 102.33856 0 0 1 2.59072-22.60992l19.3536-89.10848z m-380.81536 0h-43.08992L161.76128 719.36h108.9024l6.97344-31.8464h-66.1504l27.45344-128.02048z m126.22848 0h-42.63936L288.44032 719.36h42.63936l34.08896-159.86688z m85.0432 0h-52.5312l-34.0992 159.86688h39.15776l17.664-83.58912c0.9728-4.64896 1.87392-9.6256 2.70336-14.8992 0.8192-5.29408 1.60768-10.8544 2.3552-16.71168h1.6896c0.45056 4.64896 1.1264 9.09312 2.02752 13.33248 0.90112 4.23936 1.98656 8.37632 3.26656 12.43136l27.21792 89.43616h52.5312l34.0992-159.86688h-38.93248l-17.1008 80.896a390.01088 390.01088 0 0 0-3.70688 18.8928 153.58976 153.58976 0 0 0-1.80224 14.7456h-1.91488a128.88064 128.88064 0 0 0-2.58048-14.848 262.79936 262.79936 0 0 0-5.18144-18.56512l-24.86272-81.12128z m330.752 0h-45.44512l32.0512 73.472-69.7344 86.39488h51.968l42.63936-58.50112c1.1264 3.90144 2.21184 7.55712 3.25632 10.96704 1.05472 3.42016 1.9968 6.35904 2.816 8.83712l14.17216 38.69696h45.45536l-34.7648-84.82816 62.88384-75.03872h-50.05312l-38.7072 49.95072a311.87968 311.87968 0 0 0-5.84704-19.56864 8.27392 8.27392 0 0 0-0.33792-0.90112l-10.3424-29.48096zM608.33792 88.32H227.4304a30.72 30.72 0 0 0-30.72 30.72v280.95488h640.8192v-81.5616H700.52864c-50.8928-0.01024-92.14976-41.2672-92.16-92.16l-0.03072-137.95328z m96.12288 59.84256v58.91072a15.36 15.36 0 0 0 15.36 15.36h59.0848l-74.4448-74.27072z" fill="#FF6B08" p-id="57908"></path></svg>