<?xml version="1.0" standalone="no"?><!DOCTYPE svg PUBLIC "-//W3C//DTD SVG 1.1//EN" "http://www.w3.org/Graphics/SVG/1.1/DTD/svg11.dtd"><svg height="8823" node-id="1" sillyvg="true" template-height="8823" template-width="11841" version="1.1" viewBox="0 0 11841 8823" width="11841" xmlns="http://www.w3.org/2000/svg" xmlns:xlink="http://www.w3.org/1999/xlink"><defs node-id="173"></defs><path d="M 11840.40 7753.10 L 0.00 7753.10 L 0.00 7759.02 L 11840.40 7759.02 L 11840.40 7753.10 Z" fill="#e6e6e6" fill-rule="nonzero" node-id="175" stroke="none" target-height="5.919922" target-width="11840.4" target-x="0" target-y="7753.1"></path><path d="M 11092.10 7961.96 L 10647.60 7961.96 L 10647.60 7967.89 L 11092.10 7967.89 L 11092.10 7961.96 Z" fill="#e6e6e6" fill-rule="nonzero" node-id="177" stroke="none" target-height="5.930176" target-width="444.5" target-x="10647.6" target-y="7961.96"></path><path d="M 9040.39 8124.41 L 8834.60 8124.41 L 8834.60 8130.33 L 9040.39 8130.33 L 9040.39 8124.41 Z" fill="#e6e6e6" fill-rule="nonzero" node-id="179" stroke="none" target-height="5.919922" target-width="205.79004" target-x="8834.6" target-y="8124.41"></path><path d="M 7088.14 8042.72 L 6629.68 8042.72 L 6629.68 8048.64 L 7088.14 8048.64 L 7088.14 8042.72 Z" fill="#e6e6e6" fill-rule="nonzero" node-id="181" stroke="none" target-height="5.919922" target-width="458.45996" target-x="6629.68" target-y="8042.72"></path><path d="M 2939.26 8039.64 L 1916.49 8039.64 L 1916.49 8045.56 L 2939.26 8045.56 L 2939.26 8039.64 Z" fill="#e6e6e6" fill-rule="nonzero" node-id="183" stroke="none" target-height="5.919922" target-width="1022.77" target-x="1916.49" target-y="8039.64"></path><path d="M 1705.73 8039.64 L 1555.83 8039.64 L 1555.83 8045.56 L 1705.73 8045.56 L 1705.73 8039.64 Z" fill="#e6e6e6" fill-rule="nonzero" node-id="185" stroke="none" target-height="5.919922" target-width="149.90002" target-x="1555.83" target-y="8039.64"></path><path d="M 6701.20 7899.45 L 4482.78 7899.45 L 4482.78 7905.37 L 6701.20 7905.37 L 6701.20 7899.45 Z" fill="#e6e6e6" fill-rule="nonzero" node-id="187" stroke="none" target-height="5.919922" target-width="2218.4204" target-x="4482.78" target-y="7899.45"></path><path d="M 5612.35 6696.94 L 1039.82 6696.94 C 1004.00 6696.87 969.67 6682.60 944.36 6657.25 C 919.06 6631.90 904.84 6597.54 904.84 6561.72 L 904.84 134.03 C 905.16 98.42 919.51 64.36 944.78 39.27 C 970.05 14.17 1004.21 0.06 1039.82 0.00 L 5612.35 0.00 C 5648.22 0.00 5682.61 14.25 5707.97 39.60 C 5733.32 64.96 5747.57 99.36 5747.57 135.22 L 5747.57 6561.72 C 5747.57 6597.58 5733.32 6631.97 5707.97 6657.33 C 5682.61 6682.69 5648.22 6696.94 5612.35 6696.94 Z M 1039.82 4.74 C 1005.57 4.80 972.75 18.45 948.55 42.69 C 924.35 66.93 910.76 99.78 910.76 134.03 L 910.76 6561.72 C 910.76 6595.97 924.35 6628.82 948.55 6653.06 C 972.75 6677.30 1005.57 6690.95 1039.82 6691.01 L 5612.35 6691.01 C 5646.63 6690.95 5679.48 6677.31 5703.71 6653.08 C 5727.95 6628.84 5741.59 6595.99 5741.65 6561.72 L 5741.65 134.03 C 5741.59 99.76 5727.95 66.91 5703.71 42.68 C 5679.48 18.44 5646.63 4.80 5612.35 4.74 L 1039.82 4.74 Z" fill="#e6e6e6" fill-rule="nonzero" node-id="189" stroke="none" target-height="6696.94" target-width="4842.7256" target-x="904.844" target-y="0"></path><path d="M 10734.80 6696.94 L 6161.98 6696.94 C 6126.14 6696.87 6091.79 6682.61 6066.44 6657.26 C 6041.10 6631.92 6026.83 6597.56 6026.77 6561.72 L 6026.77 134.03 C 6027.14 98.40 6041.55 64.34 6066.86 39.25 C 6092.17 14.16 6126.35 0.06 6161.98 0.00 L 10734.80 0.00 C 10770.30 0.12 10804.40 14.26 10829.60 39.35 C 10854.90 64.44 10869.20 98.46 10869.50 134.03 L 10869.50 6561.72 C 10869.50 6597.50 10855.30 6631.82 10830.10 6657.16 C 10804.80 6682.51 10770.50 6696.81 10734.80 6696.94 Z M 6161.98 4.74 C 6127.71 4.80 6094.86 18.44 6070.63 42.68 C 6046.39 66.91 6032.75 99.76 6032.69 134.03 L 6032.69 6561.72 C 6032.75 6595.99 6046.39 6628.84 6070.63 6653.08 C 6094.86 6677.31 6127.71 6690.95 6161.98 6691.01 L 10734.80 6691.01 C 10769.00 6690.95 10801.90 6677.31 10826.10 6653.08 C 10850.30 6628.84 10864.00 6595.99 10864.00 6561.72 L 10864.00 134.03 C 10864.00 99.76 10850.30 66.91 10826.10 42.68 C 10801.90 18.44 10769.00 4.80 10734.80 4.74 L 6161.98 4.74 Z" fill="#e6e6e6" fill-rule="nonzero" node-id="191" stroke="none" target-height="6696.94" target-width="4842.73" target-x="6026.77" target-y="0"></path><path d="M 6179.75 442.36 L 1390.30 442.36 L 1390.30 3855.47 L 6179.75 3855.47 L 6179.75 442.36 Z" fill="#fafafa" fill-rule="nonzero" node-id="193" stroke="none" target-height="3413.113" target-width="4789.45" target-x="1390.3" target-y="442.357"></path><path d="M 6268.31 442.36 L 1431.74 442.36 L 1431.74 3855.47 L 6268.31 3855.47 L 6268.31 442.36 Z" fill="#f5f5f5" fill-rule="nonzero" node-id="195" stroke="none" target-height="3413.113" target-width="4836.5703" target-x="1431.74" target-y="442.357"></path><path d="M 6144.22 3715.99 L 6144.22 581.60 L 1555.83 581.60 L 1555.83 3715.99 L 6144.22 3715.99 Z" fill="#fafafa" fill-rule="nonzero" node-id="197" stroke="none" target-height="3134.389" target-width="4588.39" target-x="1555.83" target-y="581.601"></path><path d="M 2391.29 3715.99 L 3119.24 581.60 L 4073.57 581.60 L 3345.63 3715.99 L 2391.29 3715.99 Z" fill="#ffffff" fill-rule="nonzero" node-id="199" stroke="none" target-height="3134.389" target-width="1682.28" target-x="2391.29" target-y="581.601"></path><path d="M 3500.03 3715.99 L 4228.21 581.60 L 4659.20 581.60 L 3931.02 3715.99 L 3500.03 3715.99 Z" fill="#ffffff" fill-rule="nonzero" node-id="201" stroke="none" target-height="3134.389" target-width="1159.1702" target-x="3500.03" target-y="581.601"></path><path d="M 6144.22 3715.99 L 6144.22 581.60 L 6128.36 581.60 L 6128.36 3715.99 L 6144.22 3715.99 Z" fill="#fafafa" fill-rule="nonzero" node-id="203" stroke="none" target-height="3134.389" target-width="15.860352" target-x="6128.36" target-y="581.601"></path><path d="M 1297.23 436.67 L 1297.23 1789.32 L 1655.05 1789.32 C 1655.05 1789.32 2297.04 1369.94 2444.10 507.24 C 2447.66 486.58 2446.65 465.39 2441.15 445.16 C 2435.64 424.93 2425.77 406.15 2412.22 390.15 C 2398.68 374.14 2381.79 361.30 2362.75 352.52 C 2343.71 343.75 2322.98 339.25 2302.01 339.35 L 1394.56 339.35 C 1368.75 339.35 1343.99 349.60 1325.74 367.85 C 1307.49 386.11 1297.23 410.86 1297.23 436.67 Z" fill="#e0e0e0" fill-rule="nonzero" node-id="205" stroke="none" target-height="1450.0709" target-width="1150.4299" target-x="1297.23" target-y="339.249"></path><path d="M 1297.23 4272.97 L 1297.23 1898.49 L 1655.05 1898.49 C 1655.05 1898.49 2381.34 3296.84 2465.41 4272.97 L 1297.23 4272.97 Z" fill="#e0e0e0" fill-rule="nonzero" node-id="207" stroke="none" target-height="2374.4802" target-width="1168.1799" target-x="1297.23" target-y="1898.49"></path><path d="M 1644.63 1789.32 L 1310.26 1789.32 C 1290.51 1789.32 1274.50 1805.33 1274.50 1825.08 L 1274.50 1862.73 C 1274.50 1882.48 1290.51 1898.49 1310.26 1898.49 L 1644.63 1898.49 C 1664.38 1898.49 1680.39 1882.48 1680.39 1862.73 L 1680.39 1825.08 C 1680.39 1805.33 1664.38 1789.32 1644.63 1789.32 Z" fill="#f5f5f5" fill-rule="nonzero" node-id="209" stroke="none" target-height="109.170044" target-width="405.89" target-x="1274.5" target-y="1789.32"></path><path d="M 6370.14 436.67 L 6370.14 1789.32 L 6011.61 1789.32 C 6011.61 1789.32 5368.68 1369.94 5222.57 507.24 C 5219.05 486.59 5220.08 465.41 5225.61 445.20 C 5231.13 424.99 5241.01 406.23 5254.54 390.23 C 5268.08 374.24 5284.95 361.39 5303.97 352.61 C 5322.99 343.81 5343.70 339.29 5364.65 339.35 L 6273.05 339.35 C 6298.80 339.47 6323.46 349.77 6341.65 368.00 C 6359.84 386.24 6370.08 410.92 6370.14 436.67 Z" fill="#e0e0e0" fill-rule="nonzero" node-id="211" stroke="none" target-height="1450.0299" target-width="1151.0903" target-x="5219.05" target-y="339.29"></path><path d="M 6370.14 4272.97 L 6370.14 1898.49 L 6011.61 1898.49 C 6011.61 1898.49 5285.56 3296.84 5201.25 4272.97 L 6370.14 4272.97 Z" fill="#e0e0e0" fill-rule="nonzero" node-id="213" stroke="none" target-height="2374.4802" target-width="1168.8901" target-x="5201.25" target-y="1898.49"></path><path d="M 6022.03 1898.25 L 6356.40 1898.25 C 6376.15 1898.25 6392.16 1882.24 6392.16 1862.50 L 6392.16 1824.84 C 6392.16 1805.09 6376.15 1789.09 6356.40 1789.09 L 6022.03 1789.09 C 6002.28 1789.09 5986.27 1805.09 5986.27 1824.84 L 5986.27 1862.50 C 5986.27 1882.24 6002.28 1898.25 6022.03 1898.25 Z" fill="#f5f5f5" fill-rule="nonzero" node-id="215" stroke="none" target-height="109.160034" target-width="405.89014" target-x="5986.27" target-y="1789.09"></path><path d="M 6261.92 4704.43 L 5475.00 4704.43 L 5475.00 7753.10 L 6261.92 7753.10 L 6261.92 4704.43 Z" fill="#fafafa" fill-rule="nonzero" node-id="217" stroke="none" target-height="3048.67" target-width="786.9199" target-x="5475" target-y="4704.43"></path><path d="M 6051.87 7753.10 L 6261.92 7753.10 L 6261.92 7400.96 L 5831.64 7400.96 L 6051.87 7753.10 Z" fill="#f4f8ff" fill-rule="nonzero" node-id="219" stroke="none" target-height="352.14014" target-width="430.2798" target-x="5831.64" target-y="7400.96"></path><path d="M 2497.14 4704.43 L 1710.23 4704.43 L 1710.23 7753.10 L 2497.14 7753.10 L 2497.14 4704.43 Z" fill="#e0e0e0" fill-rule="nonzero" node-id="221" stroke="none" target-height="3048.67" target-width="786.9099" target-x="1710.23" target-y="4704.43"></path><path d="M 6261.92 4704.43 L 2313.85 4704.43 L 2313.85 7631.85 L 6261.92 7631.85 L 6261.92 4704.43 Z" fill="#fafafa" fill-rule="nonzero" node-id="223" stroke="none" target-height="2927.42" target-width="3948.0698" target-x="2313.85" target-y="4704.43"></path><path d="M 3500.03 4186.77 C 3500.03 4470.94 3773.78 4704.43 4108.62 4704.43 L 4410.79 4704.43 C 4745.40 4704.43 5019.15 4471.41 5019.15 4186.77 L 3500.03 4186.77 Z" fill="#ebebeb" fill-rule="nonzero" node-id="225" stroke="none" target-height="517.66016" target-width="1519.1199" target-x="3500.03" target-y="4186.77"></path><path d="M 3324.79 3536.26 L 3893.13 3536.26 C 3893.13 3536.26 3794.38 3796.74 3794.38 3950.20 C 3794.38 4103.65 4226.79 4704.43 3608.96 4704.43 C 2991.12 4704.43 3423.54 4103.41 3423.54 3950.20 C 3423.54 3796.98 3324.79 3536.26 3324.79 3536.26 Z" fill="#e0e0e0" fill-rule="nonzero" node-id="227" stroke="none" target-height="1168.1702" target-width="1235.6699" target-x="2991.12" target-y="3536.26"></path><path d="M 6098.99 4882.75 L 2476.78 4882.75 L 2476.78 5620.88 L 6098.99 5620.88 L 6098.99 4882.75 Z" fill="#ebebeb" fill-rule="nonzero" node-id="229" stroke="none" target-height="738.1299" target-width="3622.2102" target-x="2476.78" target-y="4882.75"></path><path d="M 2523.90 7753.10 L 2313.85 7753.10 L 2313.85 7400.96 L 2744.37 7400.96 L 2523.90 7753.10 Z" fill="#fafafa" fill-rule="nonzero" node-id="231" stroke="none" target-height="352.14014" target-width="430.52002" target-x="2313.85" target-y="7400.96"></path><path d="M 4176.59 5251.69 C 4176.59 5273.71 4183.11 5295.23 4195.34 5313.53 C 4207.57 5331.83 4224.96 5346.10 4245.29 5354.52 C 4265.63 5362.95 4288.01 5365.15 4309.60 5360.86 C 4331.19 5356.56 4351.02 5345.96 4366.59 5330.40 C 4382.15 5314.83 4392.75 5295.00 4397.05 5273.41 C 4401.34 5251.82 4399.14 5229.44 4390.71 5209.10 C 4382.29 5188.76 4368.02 5171.38 4349.72 5159.15 C 4331.42 5146.92 4309.90 5140.39 4287.89 5140.39 C 4258.37 5140.39 4230.06 5152.12 4209.19 5172.99 C 4188.31 5193.87 4176.59 5222.18 4176.59 5251.69 Z" fill="#fafafa" fill-rule="nonzero" node-id="233" stroke="none" target-height="224.75977" target-width="224.75" target-x="4176.59" target-y="5140.39"></path><path d="M 6098.99 5799.20 L 2476.78 5799.20 L 2476.78 6537.33 L 6098.99 6537.33 L 6098.99 5799.20 Z" fill="#ebebeb" fill-rule="nonzero" node-id="235" stroke="none" target-height="738.1299" target-width="3622.2102" target-x="2476.78" target-y="5799.2"></path><path d="M 4176.59 6168.14 C 4176.59 6190.15 4183.11 6211.67 4195.34 6229.98 C 4207.57 6248.28 4224.96 6262.55 4245.29 6270.97 C 4265.63 6279.39 4288.01 6281.60 4309.60 6277.30 C 4331.19 6273.01 4351.02 6262.41 4366.59 6246.84 C 4382.15 6231.28 4392.75 6211.45 4397.05 6189.86 C 4401.34 6168.27 4399.14 6145.89 4390.71 6125.55 C 4382.29 6105.21 4368.02 6087.83 4349.72 6075.60 C 4331.42 6063.37 4309.90 6056.84 4287.89 6056.84 C 4258.37 6056.84 4230.06 6068.57 4209.19 6089.44 C 4188.31 6110.31 4176.59 6138.62 4176.59 6168.14 Z" fill="#fafafa" fill-rule="nonzero" node-id="237" stroke="none" target-height="224.76025" target-width="224.75" target-x="4176.59" target-y="6056.84"></path><path d="M 6098.99 6715.41 L 2476.78 6715.41 L 2476.78 7453.54 L 6098.99 7453.54 L 6098.99 6715.41 Z" fill="#ebebeb" fill-rule="nonzero" node-id="239" stroke="none" target-height="738.1299" target-width="3622.2102" target-x="2476.78" target-y="6715.41"></path><path d="M 4287.89 7195.89 C 4349.36 7195.89 4399.19 7146.06 4399.19 7084.59 C 4399.19 7023.12 4349.36 6973.29 4287.89 6973.29 C 4226.42 6973.29 4176.59 7023.12 4176.59 7084.59 C 4176.59 7146.06 4226.42 7195.89 4287.89 7195.89 Z" fill="#fafafa" fill-rule="nonzero" node-id="241" stroke="none" target-height="222.6001" target-width="222.6001" target-x="4176.59" target-y="6973.29"></path><path d="M 8759.06 401.15 L 7001.23 401.15 L 7001.23 1652.45 L 8759.06 1652.45 L 8759.06 401.15 Z" fill="#e0e0e0" fill-rule="nonzero" node-id="243" stroke="none" target-height="1251.2969" target-width="1757.8296" target-x="7001.23" target-y="401.153"></path><path d="M 8902.57 401.15 L 7101.17 401.15 L 7101.17 1652.45 L 8902.57 1652.45 L 8902.57 401.15 Z" fill="#f5f5f5" fill-rule="nonzero" node-id="245" stroke="none" target-height="1251.2969" target-width="1801.4004" target-x="7101.17" target-y="401.153"></path><path d="M 8787.71 1537.60 L 8787.71 516.00 L 7216.02 516.00 L 7216.02 1537.60 L 8787.71 1537.60 Z" fill="#ffffff" fill-rule="nonzero" node-id="247" stroke="none" target-height="1021.595" target-width="1571.69" target-x="7216.02" target-y="516.005"></path><path d="M 8511.12 1239.93 L 8511.12 813.44 L 7492.61 813.44 L 7492.61 1239.93 L 8511.12 1239.93 Z" fill="#f5f5f5" fill-rule="nonzero" node-id="249" stroke="none" target-height="426.49408" target-width="1018.51025" target-x="7492.61" target-y="813.436"></path><path d="M 10185.10 1026.80 L 9115.22 1026.80 L 9115.22 2148.80 L 10185.10 2148.80 L 10185.10 1026.80 Z" fill="#e0e0e0" fill-rule="nonzero" node-id="251" stroke="none" target-height="1122" target-width="1069.8799" target-x="9115.22" target-y="1026.8"></path><path d="M 10329.10 1026.80 L 9215.39 1026.80 L 9215.39 2148.80 L 10329.10 2148.80 L 10329.10 1026.80 Z" fill="#f5f5f5" fill-rule="nonzero" node-id="253" stroke="none" target-height="1122" target-width="1113.71" target-x="9215.39" target-y="1026.8"></path><path d="M 10214.20 2033.95 L 10214.20 1141.65 L 9330.24 1141.65 L 9330.24 2033.95 L 10214.20 2033.95 Z" fill="#ffffff" fill-rule="nonzero" node-id="255" stroke="none" target-height="892.2999" target-width="883.95996" target-x="9330.24" target-y="1141.65"></path><path d="M 9606.83 1587.80 C 9606.83 1548.40 9622.47 1510.61 9650.31 1482.73 C 9678.15 1454.84 9715.91 1439.15 9755.31 1439.08 L 9788.94 1439.08 C 9828.34 1439.15 9866.11 1454.84 9893.94 1482.73 C 9921.78 1510.61 9937.42 1548.40 9937.42 1587.80 C 9937.42 1627.18 9921.77 1664.94 9893.93 1692.79 C 9866.08 1720.64 9828.32 1736.28 9788.94 1736.28 L 9756.50 1736.28 C 9736.90 1736.43 9717.46 1732.71 9699.31 1725.32 C 9681.16 1717.93 9664.65 1707.01 9650.74 1693.21 C 9636.83 1679.41 9625.78 1662.99 9618.25 1644.89 C 9610.71 1626.80 9606.83 1607.40 9606.83 1587.80 Z" fill="#f5f5f5" fill-rule="nonzero" node-id="257" stroke="none" target-height="297.3501" target-width="330.58984" target-x="9606.83" target-y="1439.08"></path><path d="M 11840.40 2530.29 L 9015.29 2530.29 L 8501.65 2530.29 L 8501.65 3183.17 L 7988.01 3183.17 L 7988.01 3836.06 L 7474.38 3836.06 L 7474.38 4488.94 L 6960.74 4488.94 L 6960.74 5141.82 L 6447.10 5141.82 L 6447.10 5794.46 L 5933.47 5794.46 L 5933.47 6447.34 L 5419.83 6447.34 L 5419.83 7100.22 L 4906.19 7100.22 L 4906.19 7753.10 L 5419.83 7753.10 L 11840.40 7753.10 L 11840.40 2530.29 Z" fill="#fafafa" fill-rule="nonzero" node-id="259" stroke="none" target-height="5222.81" target-width="6934.2104" target-x="4906.19" target-y="2530.29"></path><path d="M 7781.04 7100.22 L 4853.38 7100.22 L 4853.38 7296.06 L 7781.04 7296.06 L 7781.04 7100.22 Z" fill="#ebebeb" fill-rule="nonzero" node-id="261" stroke="none" target-height="195.83984" target-width="2927.6602" target-x="4853.38" target-y="7100.22"></path><path d="M 8294.68 6447.34 L 5367.02 6447.34 L 5367.02 6643.18 L 8294.68 6643.18 L 8294.68 6447.34 Z" fill="#ebebeb" fill-rule="nonzero" node-id="263" stroke="none" target-height="195.84033" target-width="2927.6597" target-x="5367.02" target-y="6447.34"></path><path d="M 8808.32 5794.46 L 5880.66 5794.46 L 5880.66 5990.30 L 8808.32 5990.30 L 8808.32 5794.46 Z" fill="#ebebeb" fill-rule="nonzero" node-id="265" stroke="none" target-height="195.83984" target-width="2927.6602" target-x="5880.66" target-y="5794.46"></path><path d="M 9321.95 5141.58 L 6394.29 5141.58 L 6394.29 5337.42 L 9321.95 5337.42 L 9321.95 5141.58 Z" fill="#ebebeb" fill-rule="nonzero" node-id="267" stroke="none" target-height="195.83984" target-width="2927.6602" target-x="6394.29" target-y="5141.58"></path><path d="M 9835.59 4488.94 L 6907.93 4488.94 L 6907.93 4684.78 L 9835.59 4684.78 L 9835.59 4488.94 Z" fill="#ebebeb" fill-rule="nonzero" node-id="269" stroke="none" target-height="195.83984" target-width="2927.6597" target-x="6907.93" target-y="4488.94"></path><path d="M 10349.20 3836.06 L 7421.57 3836.06 L 7421.57 4031.90 L 10349.20 4031.90 L 10349.20 3836.06 Z" fill="#ebebeb" fill-rule="nonzero" node-id="271" stroke="none" target-height="195.83984" target-width="2927.6304" target-x="7421.57" target-y="3836.06"></path><path d="M 10862.90 3183.18 L 7935.21 3183.18 L 7935.21 3379.02 L 10862.90 3379.02 L 10862.90 3183.18 Z" fill="#ebebeb" fill-rule="nonzero" node-id="273" stroke="none" target-height="195.84009" target-width="2927.6904" target-x="7935.21" target-y="3183.18"></path><path d="M 11376.50 2530.29 L 8448.84 2530.29 L 8448.84 2726.14 L 11376.50 2726.14 L 11376.50 2530.29 Z" fill="#ebebeb" fill-rule="nonzero" node-id="275" stroke="none" target-height="195.84985" target-width="2927.6602" target-x="8448.84" target-y="2530.29"></path><path d="M 11326.80 2530.29 L 11326.80 3183.17 L 10813.10 3183.17 L 10813.10 3836.06 L 10299.50 3836.06 L 10299.50 4488.94 L 9785.86 4488.94 L 9785.86 5141.82 L 9272.22 5141.82 L 9272.22 5794.46 L 8758.59 5794.46 L 8758.59 6447.34 L 8244.95 6447.34 L 8244.95 7100.22 L 7731.31 7100.22 L 7731.31 7753.10 L 8244.95 7753.10 L 11840.40 7753.10 L 11840.40 3183.17 L 11840.40 2530.29 L 11326.80 2530.29 Z" fill="#ffffff" fill-rule="nonzero" node-id="277" stroke="none" target-height="5222.81" target-width="4109.0903" target-x="7731.31" target-y="2530.29"></path><path d="M 5920.20 8822.52 C 8456.00 8822.52 10511.70 8702.51 10511.70 8554.46 C 10511.70 8406.41 8456.00 8286.39 5920.20 8286.39 C 3384.40 8286.39 1328.73 8406.41 1328.73 8554.46 C 1328.73 8702.51 3384.40 8822.52 5920.20 8822.52 Z" fill="#f5f5f5" fill-rule="nonzero" node-id="279" stroke="none" target-height="536.1299" target-width="9182.971" target-x="1328.73" target-y="8286.39"></path><path d="M 8647.05 2533.85 C 8680.20 2644.91 8851.18 2852.83 8864.68 3004.15 C 8878.17 3155.47 8586.66 3397.49 8586.66 3397.49 C 8586.66 3397.49 8368.80 2669.06 8505.20 2584.05 C 8641.60 2499.04 8647.05 2533.85 8647.05 2533.85 Z" fill="#263238" fill-rule="nonzero" node-id="281" stroke="none" target-height="898.44995" target-width="509.37012" target-x="8368.8" target-y="2499.04"></path><path d="M 8048.40 3320.76 C 7996.78 3363.86 7946.10 3400.09 7893.29 3437.27 C 7840.48 3474.45 7786.02 3508.31 7730.60 3540.05 C 7674.99 3572.95 7617.68 3602.91 7558.92 3629.80 C 7529.08 3643.29 7499.48 3656.55 7468.69 3668.16 C 7453.54 3674.32 7438.15 3680.24 7422.52 3685.45 L 7375.15 3702.02 C 7334.66 3713.34 7292.30 3716.40 7250.59 3711.02 C 7215.73 3706.94 7181.22 3700.29 7147.35 3691.13 C 7084.20 3673.65 7022.39 3651.65 6962.40 3625.30 C 6845.95 3574.45 6733.60 3514.68 6626.37 3446.51 L 6670.65 3364.10 C 6726.54 3387.78 6783.84 3411.46 6840.68 3432.06 C 6897.51 3452.66 6954.82 3474.45 7012.13 3492.21 C 7068.00 3510.52 7124.94 3525.39 7182.63 3536.73 C 7209.12 3541.91 7235.95 3545.15 7262.91 3546.44 C 7283.01 3548.00 7303.22 3545.91 7322.58 3540.28 C 7376.61 3519.61 7429.43 3495.89 7480.77 3469.24 C 7507.06 3455.50 7533.11 3441.53 7558.68 3426.38 C 7584.26 3411.22 7610.31 3396.54 7635.64 3380.91 C 7686.56 3349.41 7736.29 3316.02 7785.54 3281.69 C 7834.80 3247.35 7883.82 3210.64 7927.63 3175.83 L 8048.40 3320.76 Z" fill="#e58a7b" fill-rule="nonzero" node-id="283" stroke="none" target-height="540.5698" target-width="1422.0298" target-x="6626.37" target-y="3175.83"></path><path d="M 8173.43 3068.56 C 8114.70 3022.62 7871.74 3172.99 7798.09 3235.75 L 7851.85 3560.88 C 7851.85 3560.88 8201.14 3414.54 8221.98 3314.60 C 8244.00 3210.17 8217.24 3103.61 8173.43 3068.56 Z" fill="#429cfd" fill-rule="nonzero" node-id="285" stroke="none" target-height="538.25977" target-width="445.91016" target-x="7798.09" target-y="3022.62"></path><g node-id="583"><path d="M 8173.43 3068.56 C 8114.70 3022.62 7871.74 3172.99 7798.09 3235.75 L 7851.85 3560.88 C 7851.85 3560.88 8201.14 3414.54 8221.98 3314.60 C 8244.00 3210.17 8217.24 3103.61 8173.43 3068.56 Z" fill="#000000" fill-opacity="0.2" fill-rule="nonzero" group-id="1" node-id="289" stroke="none" target-height="538.25977" target-width="445.91016" target-x="7798.09" target-y="3022.62"></path></g><path d="M 8990.66 4052.50 L 8253.24 4196.24 C 7872.21 3164.47 7955.10 3130.60 7955.10 3130.60 C 8008.68 3101.16 8064.05 3075.06 8120.86 3052.46 L 8130.81 3048.67 C 8178.17 3031.38 8187.64 3028.78 8250.63 3010.30 C 8359.09 2984.49 8460.21 2962.94 8585.48 2945.18 L 8609.16 2941.87 C 8632.84 2939.03 8654.39 2936.66 8676.18 2934.53 C 8690.86 2932.87 8705.54 2931.92 8719.51 2930.97 L 8766.87 2928.37 C 8847.86 2924.34 8905.88 2925.53 8905.88 2925.53 C 8883.38 3569.88 8919.85 3754.83 8990.66 4052.50 Z" fill="#429cfd" fill-rule="nonzero" node-id="292" stroke="none" target-height="1271.9001" target-width="1118.4502" target-x="7872.21" target-y="2924.34"></path><path d="M 8990.66 4052.50 L 8253.24 4196.24 C 7872.21 3164.47 7955.10 3130.60 7955.10 3130.60 C 8008.68 3101.16 8064.05 3075.06 8120.86 3052.46 L 8130.81 3048.67 C 8178.17 3031.38 8187.64 3028.78 8250.63 3010.30 C 8359.09 2984.49 8460.21 2962.94 8585.48 2945.18 L 8609.16 2941.87 C 8632.84 2939.03 8654.39 2936.66 8676.18 2934.53 C 8690.86 2932.87 8705.54 2931.92 8719.51 2930.97 L 8766.87 2928.37 C 8847.86 2924.34 8905.88 2925.53 8905.88 2925.53 C 8883.38 3569.88 8919.85 3754.83 8990.66 4052.50 Z" fill="#000000" fill-opacity="0.2" fill-rule="nonzero" group-id="2" node-id="296" stroke="none" target-height="1271.9001" target-width="1118.4502" target-x="7872.21" target-y="2924.34"></path><path d="M 8413.08 2607.97 C 8365.72 2686.35 8537.41 2722.58 8639.00 2642.31 C 8720.22 2577.89 8701.04 2429.18 8631.42 2394.60 C 8561.80 2360.03 8413.08 2607.97 8413.08 2607.97 Z" fill="#429cfd" fill-rule="nonzero" node-id="299" stroke="none" target-height="362.55005" target-width="354.5" target-x="8365.72" target-y="2360.03"></path><path d="M 8413.08 2607.97 C 8365.72 2686.35 8537.41 2722.58 8639.00 2642.31 C 8720.22 2577.89 8701.04 2429.18 8631.42 2394.60 C 8561.80 2360.03 8413.08 2607.97 8413.08 2607.97 Z" fill="#000000" fill-opacity="0.4" fill-rule="nonzero" group-id="3" node-id="303" stroke="none" target-height="362.55005" target-width="354.5" target-x="8365.72" target-y="2360.03"></path><path d="M 9130.85 8323.10 L 8946.38 8336.83 L 8878.88 7912.23 L 9063.36 7898.50 L 9130.85 8323.10 Z" fill="#e58a7b" fill-rule="nonzero" node-id="306" stroke="none" target-height="438.33008" target-width="251.96973" target-x="8878.88" target-y="7898.5"></path><path d="M 10435.70 7729.66 L 10279.10 7828.17 L 10000.40 7497.58 L 10156.90 7398.83 L 10435.70 7729.66 Z" fill="#e58a7b" fill-rule="nonzero" node-id="308" stroke="none" target-height="429.33984" target-width="435.2998" target-x="10000.4" target-y="7398.83"></path><path d="M 8878.88 7912.23 L 8916.30 8148.10 L 9098.17 8117.55 L 9063.59 7898.74 L 8878.88 7912.23 Z" fill="#cf6f64" fill-rule="nonzero" node-id="310" stroke="none" target-height="249.35986" target-width="219.29004" target-x="8878.88" target-y="7898.74"></path><path d="M 10157.20 7399.07 L 10000.40 7497.58 L 10116.00 7634.46 L 10276.10 7539.97 L 10157.20 7399.07 Z" fill="#cf6f64" fill-rule="nonzero" node-id="312" stroke="none" target-height="235.39014" target-width="275.69922" target-x="10000.4" target-y="7399.07"></path><path d="M 8264.61 4196.24 C 8264.61 4196.24 8262.00 5660.19 8381.59 6211.48 C 8506.15 6785.03 8872.49 8089.84 8872.49 8089.84 L 9138.19 8055.50 C 9138.19 8055.50 8930.51 6737.43 8841.94 6167.43 C 8745.56 5546.28 8804.76 4091.10 8804.76 4091.10 L 8264.61 4196.24 Z" fill="#429cfd" fill-rule="nonzero" node-id="314" stroke="none" target-height="3998.7397" target-width="876.1904" target-x="8262" target-y="4091.1"></path><path d="M 8264.61 4196.24 C 8264.61 4196.24 8262.00 5660.19 8381.59 6211.48 C 8506.15 6785.03 8872.49 8089.84 8872.49 8089.84 L 9138.19 8055.50 C 9138.19 8055.50 8930.51 6737.43 8841.94 6167.43 C 8745.56 5546.28 8804.76 4091.10 8804.76 4091.10 L 8264.61 4196.24 Z" fill="#000000" fill-opacity="0.7" fill-rule="nonzero" group-id="4" node-id="318" stroke="none" target-height="3998.7397" target-width="876.1904" target-x="8262" target-y="4091.1"></path><path d="M 8788.19 4739.95 L 8657.94 4610.18 C 8662.92 5172.60 8694.41 5450.38 8802.63 5753.02 C 8785.58 5433.09 8784.16 5054.67 8788.19 4739.95 Z" fill="#000000" fill-opacity="0.5" fill-rule="nonzero" group-id="5" node-id="323" stroke="none" target-height="1142.8398" target-width="144.68945" target-x="8657.94" target-y="4610.18"></path><path d="M 8447.89 4158.35 C 8447.89 4158.35 8845.02 5368.20 9042.05 6065.13 C 9249.96 6800.42 10047.10 7613.62 10047.10 7613.62 L 10275.80 7481.48 C 10275.80 7481.48 9731.16 6709.49 9530.82 6023.45 C 9123.51 4630.78 9290.93 4335.72 8990.42 4052.50 L 8447.89 4158.35 Z" fill="#429cfd" fill-rule="nonzero" node-id="326" stroke="none" target-height="3561.12" target-width="1827.9102" target-x="8447.89" target-y="4052.5"></path><path d="M 8447.89 4158.35 C 8447.89 4158.35 8845.02 5368.20 9042.05 6065.13 C 9249.96 6800.42 10047.10 7613.62 10047.10 7613.62 L 10275.80 7481.48 C 10275.80 7481.48 9731.16 6709.49 9530.82 6023.45 C 9123.51 4630.78 9290.93 4335.72 8990.42 4052.50 L 8447.89 4158.35 Z" fill="#000000" fill-opacity="0.7" fill-rule="nonzero" group-id="6" node-id="330" stroke="none" target-height="3561.12" target-width="1827.9102" target-x="8447.89" target-y="4052.5"></path><path d="M 8135.78 2180.77 C 8241.40 2216.05 8337.30 2478.20 8341.33 2581.44 C 8345.36 2684.69 8035.37 2827.02 8035.37 2827.02 C 8035.37 2827.02 7898.74 2495.48 7936.86 2282.36 C 7953.44 2189.76 8135.78 2180.77 8135.78 2180.77 Z" fill="#263238" fill-rule="nonzero" node-id="333" stroke="none" target-height="646.25" target-width="446.62012" target-x="7898.74" target-y="2180.77"></path><path d="M 6686.28 3372.86 L 6561.01 3236.46 L 6520.04 3407.43 C 6520.04 3407.43 6609.08 3486.05 6681.07 3459.06 L 6686.28 3372.86 Z" fill="#e58a7b" fill-rule="nonzero" node-id="335" stroke="none" target-height="249.59009" target-width="166.23975" target-x="6520.04" target-y="3236.46"></path><path d="M 6434.08 3197.38 L 6346.46 3267.01 L 6520.04 3407.43 L 6561.01 3236.46 L 6434.08 3197.38 Z" fill="#e58a7b" fill-rule="nonzero" node-id="337" stroke="none" target-height="210.05005" target-width="214.5498" target-x="6346.46" target-y="3197.38"></path><path d="M 10230.10 7792.88 L 10376.50 7645.35 C 10379.00 7642.83 10382.30 7641.30 10385.90 7641.04 C 10389.50 7640.78 10393.00 7641.80 10395.90 7643.93 L 10529.20 7742.92 C 10532.50 7745.50 10535.20 7748.76 10537.20 7752.48 C 10539.10 7756.20 10540.20 7760.28 10540.50 7764.47 C 10540.70 7768.66 10540.10 7772.85 10538.60 7776.77 C 10537.10 7780.69 10534.80 7784.24 10531.80 7787.20 C 10479.70 7837.64 10452.20 7859.43 10387.80 7924.31 C 10348.30 7964.33 10294.50 8026.61 10239.80 8081.79 C 10185.10 8136.96 10127.60 8085.58 10145.10 8058.11 C 10224.90 7933.31 10210.70 7886.66 10216.10 7823.19 C 10217.00 7811.73 10221.90 7800.96 10230.10 7792.88 Z" fill="#263238" fill-rule="nonzero" node-id="339" stroke="none" target-height="496.18018" target-width="413.1006" target-x="10127.6" target-y="7640.78"></path><path d="M 8934.06 8310.31 L 9141.98 8310.31 C 9145.64 8310.30 9149.18 8311.58 9151.99 8313.92 C 9154.80 8316.25 9156.71 8319.50 9157.37 8323.10 L 9190.05 8487.44 C 9190.78 8491.48 9190.61 8495.64 9189.56 8499.61 C 9188.50 8503.58 9186.58 8507.27 9183.93 8510.41 C 9181.29 8513.55 9177.98 8516.07 9174.25 8517.79 C 9170.52 8519.51 9166.45 8520.39 9162.34 8520.36 C 9089.64 8519.17 9054.60 8514.91 8963.19 8514.91 C 8907.07 8514.91 8791.03 8520.59 8713.36 8520.59 C 8635.68 8520.59 8627.40 8443.87 8659.36 8437.00 C 8801.45 8405.74 8857.10 8362.88 8903.75 8321.68 C 8912.21 8314.44 8922.94 8310.42 8934.06 8310.31 Z" fill="#263238" fill-rule="nonzero" node-id="341" stroke="none" target-height="210.29004" target-width="563.3799" target-x="8627.4" target-y="8310.3"></path><path d="M 8929.80 3298.97 L 8816.13 3366.70 L 8947.32 3859.97 C 8918.67 3710.55 8931.46 3546.44 8929.80 3298.97 Z" fill="#429cfd" fill-opacity="0.27" fill-rule="nonzero" group-id="7" node-id="345" stroke="none" target-height="561" target-width="131.19043" target-x="8816.13" target-y="3298.97"></path><path d="M 8283.79 2528.87 C 8364.54 2596.36 8481.76 2694.64 8619.82 2579.79 C 8738.22 2480.80 8821.10 2221.02 8608.69 2211.55 C 8497.62 2206.58 8283.79 2528.87 8283.79 2528.87 Z" fill="#263238" fill-rule="nonzero" node-id="348" stroke="none" target-height="488.0598" target-width="537.3096" target-x="8283.79" target-y="2206.58"></path><path d="M 8478.92 2575.05 C 8478.92 2686.83 8496.20 2888.35 8585.48 2945.66 C 8585.48 2945.66 8577.43 3060.75 8377.09 3099.58 C 8157.09 3142.45 8250.63 3010.78 8250.63 3010.78 C 8365.25 2958.68 8345.36 2870.12 8307.47 2790.55 L 8478.92 2575.05 Z" fill="#e58a7b" fill-rule="nonzero" node-id="350" stroke="none" target-height="567.3999" target-width="428.39063" target-x="8157.09" target-y="2575.05"></path><path d="M 8409.06 2662.91 L 8307.70 2790.55 C 8316.58 2809.00 8323.87 2828.17 8329.49 2847.86 C 8374.01 2832.23 8427.29 2769.71 8422.79 2720.69 C 8421.82 2700.75 8417.16 2681.16 8409.06 2662.91 Z" fill="#cf6f64" fill-rule="nonzero" node-id="352" stroke="none" target-height="184.9502" target-width="119.58984" target-x="8307.7" target-y="2662.91"></path><path d="M 8489.57 2318.35 C 8513.25 2500.46 8527.70 2576.95 8454.76 2687.06 C 8345.12 2852.83 8116.36 2842.17 8038.45 2670.96 C 7967.41 2516.80 7940.89 2244.71 8102.87 2139.33 C 8138.48 2115.75 8179.54 2101.68 8222.13 2098.45 C 8264.72 2095.23 8307.43 2102.95 8346.19 2120.90 C 8384.95 2138.84 8418.48 2166.41 8443.57 2200.97 C 8468.67 2235.53 8484.51 2275.94 8489.57 2318.35 Z" fill="#e58a7b" fill-rule="nonzero" node-id="354" stroke="none" target-height="757.6001" target-width="586.81006" target-x="7940.89" target-y="2095.23"></path><path d="M 8173.20 1999.37 C 8050.06 2086.75 8297.05 2112.57 8297.28 2239.26 C 8297.28 2291.59 8383.25 2457.60 8505.44 2448.12 L 8623.84 2237.84 C 8748.40 2036.55 8454.05 1799.74 8173.20 1999.37 Z" fill="#263238" fill-rule="nonzero" node-id="356" stroke="none" target-height="657.8601" target-width="698.34033" target-x="8050.06" target-y="1799.74"></path><path d="M 8173.20 1999.37 C 7956.52 1988.00 7862.03 2160.40 7886.90 2315.27 C 8038.05 2277.59 8194.41 2265.18 8349.62 2278.57 C 8646.58 2308.88 8173.20 1999.37 8173.20 1999.37 Z" fill="#263238" fill-rule="nonzero" node-id="358" stroke="none" target-height="327.27002" target-width="784.5503" target-x="7862.03" target-y="1988"></path><path d="M 8548.77 2475.36 C 8551.78 2510.70 8540.62 2545.80 8517.75 2572.92 C 8487.20 2608.68 8446.71 2587.60 8432.50 2545.21 C 8420.42 2506.85 8421.85 2442.20 8463.05 2421.84 C 8472.15 2417.63 8482.16 2415.75 8492.17 2416.38 C 8502.18 2417.00 8511.87 2420.11 8520.38 2425.42 C 8528.89 2430.73 8535.94 2438.08 8540.90 2446.80 C 8545.85 2455.51 8548.56 2465.33 8548.77 2475.36 Z" fill="#e58a7b" fill-rule="nonzero" node-id="360" stroke="none" target-height="192.92993" target-width="131.36035" target-x="8420.42" target-y="2415.75"></path><path d="M 8226.48 2421.84 C 8229.32 2436.52 8223.87 2449.78 8214.40 2451.68 C 8204.93 2453.57 8194.75 2443.15 8191.90 2427.99 C 8189.06 2412.84 8194.51 2399.81 8203.98 2397.92 C 8213.45 2396.02 8223.64 2407.16 8226.48 2421.84 Z" fill="#263238" fill-rule="nonzero" node-id="362" stroke="none" target-height="57.55005" target-width="40.260254" target-x="8189.06" target-y="2396.02"></path><path d="M 8060.95 2454.04 C 8063.79 2468.72 8058.35 2482.22 8048.87 2484.12 C 8039.40 2486.01 8029.22 2475.59 8026.38 2460.44 C 8023.53 2445.28 8028.98 2432.26 8038.45 2430.60 C 8047.93 2428.94 8058.11 2439.12 8060.95 2454.04 Z" fill="#263238" fill-rule="nonzero" node-id="364" stroke="none" target-height="57.07007" target-width="40.260254" target-x="8023.53" target-y="2428.94"></path><path d="M 8042.95 2430.84 L 8005.77 2427.76 C 8005.77 2427.76 8029.22 2451.68 8042.95 2430.84 Z" fill="#263238" fill-rule="nonzero" node-id="366" stroke="none" target-height="23.919922" target-width="37.180176" target-x="8005.77" target-y="2427.76"></path><path d="M 8109.73 2470.86 C 8103.08 2506.73 8091.61 2541.54 8075.63 2574.34 C 8084.12 2578.30 8093.38 2580.35 8102.75 2580.35 C 8112.12 2580.35 8121.37 2578.30 8129.86 2574.34 L 8109.73 2470.86 Z" fill="#df5753" fill-rule="nonzero" node-id="368" stroke="none" target-height="109.48999" target-width="54.22998" target-x="8075.63" target-y="2470.86"></path><path d="M 8191.67 2621.70 C 8190.65 2621.72 8189.66 2621.37 8188.88 2620.72 C 8188.10 2620.06 8187.57 2619.15 8187.40 2618.15 C 8187.30 2617.59 8187.32 2617.01 8187.44 2616.46 C 8187.57 2615.90 8187.80 2615.38 8188.13 2614.91 C 8188.46 2614.45 8188.88 2614.06 8189.37 2613.76 C 8189.85 2613.46 8190.39 2613.26 8190.96 2613.18 C 8209.26 2609.99 8226.56 2602.55 8241.45 2591.44 C 8256.34 2580.33 8268.41 2565.87 8276.68 2549.24 C 8276.90 2548.71 8277.22 2548.23 8277.62 2547.82 C 8278.03 2547.42 8278.51 2547.10 8279.03 2546.88 C 8279.56 2546.66 8280.13 2546.54 8280.70 2546.54 C 8281.27 2546.54 8281.84 2546.65 8282.37 2546.87 C 8282.89 2547.09 8283.37 2547.41 8283.78 2547.81 C 8284.18 2548.22 8284.51 2548.69 8284.73 2549.22 C 8284.95 2549.75 8285.06 2550.32 8285.06 2550.89 C 8285.06 2551.46 8284.95 2552.03 8284.73 2552.55 C 8276.06 2570.63 8263.16 2586.36 8247.13 2598.39 C 8231.09 2610.43 8212.39 2618.42 8192.61 2621.70 L 8191.67 2621.70 Z" fill="#263238" fill-rule="nonzero" node-id="370" stroke="none" target-height="75.17993" target-width="97.759766" target-x="8187.3" target-y="2546.54"></path><path d="M 8264.61 2358.85 C 8262.44 2358.87 8260.34 2358.11 8258.69 2356.71 C 8250.72 2349.14 8241.07 2343.56 8230.54 2340.44 C 8220.00 2337.31 8208.87 2336.72 8198.06 2338.72 C 8195.68 2339.31 8193.15 2338.94 8191.04 2337.67 C 8188.93 2336.41 8187.41 2334.36 8186.81 2331.97 C 8186.22 2329.58 8186.59 2327.06 8187.86 2324.95 C 8189.12 2322.84 8191.18 2321.32 8193.56 2320.72 C 8207.22 2318.03 8221.32 2318.63 8234.70 2322.46 C 8248.08 2326.29 8260.36 2333.24 8270.53 2342.74 C 8272.15 2344.38 8273.05 2346.60 8273.05 2348.90 C 8273.05 2351.21 8272.15 2353.42 8270.53 2355.06 C 8269.87 2356.07 8268.99 2356.94 8267.97 2357.59 C 8266.95 2358.24 8265.81 2358.67 8264.61 2358.85 Z" fill="#263238" fill-rule="nonzero" node-id="372" stroke="none" target-height="40.840088" target-width="86.82959" target-x="8186.22" target-y="2318.03"></path><path d="M 7969.30 2391.76 C 7968.21 2392.01 7967.08 2392.01 7965.99 2391.76 C 7964.91 2391.32 7963.93 2390.67 7963.10 2389.85 C 7962.27 2389.02 7961.62 2388.04 7961.18 2386.96 C 7960.74 2385.88 7960.52 2384.72 7960.53 2383.55 C 7960.54 2382.38 7960.79 2381.23 7961.25 2380.16 C 7966.29 2367.21 7974.36 2355.65 7984.78 2346.47 C 7995.21 2337.28 8007.68 2330.72 8021.17 2327.35 C 8022.30 2327.11 8023.48 2327.11 8024.62 2327.34 C 8025.76 2327.57 8026.84 2328.04 8027.79 2328.70 C 8028.75 2329.37 8029.55 2330.22 8030.17 2331.21 C 8030.78 2332.20 8031.18 2333.30 8031.35 2334.46 C 8031.59 2335.58 8031.60 2336.73 8031.38 2337.86 C 8031.16 2338.99 8030.72 2340.06 8030.08 2341.01 C 8029.44 2341.96 8028.61 2342.77 8027.65 2343.39 C 8026.69 2344.02 8025.61 2344.44 8024.48 2344.64 C 8013.84 2347.54 8004.02 2352.88 7995.80 2360.24 C 7987.57 2367.60 7981.18 2376.77 7977.12 2387.03 C 7976.36 2388.44 7975.23 2389.63 7973.86 2390.46 C 7972.48 2391.29 7970.91 2391.74 7969.30 2391.76 Z" fill="#263238" fill-rule="nonzero" node-id="374" stroke="none" target-height="64.8999" target-width="71.08008" target-x="7960.52" target-y="2327.11"></path><path d="M 10175.20 7878.85 C 10171.10 7878.74 10167.10 7877.65 10163.60 7875.67 C 10160.00 7873.69 10157.00 7870.88 10154.80 7867.48 C 10153.10 7865.47 10152.00 7863.06 10151.50 7860.49 C 10151.10 7857.91 10151.30 7855.26 10152.20 7852.80 C 10160.50 7830.54 10225.90 7816.33 10233.20 7814.67 C 10234.00 7814.52 10234.90 7814.62 10235.70 7814.95 C 10236.50 7815.29 10237.20 7815.85 10237.70 7816.56 C 10238.20 7817.25 10238.50 7818.08 10238.50 7818.93 C 10238.50 7819.78 10238.20 7820.61 10237.70 7821.30 C 10224.90 7842.38 10199.80 7877.66 10176.40 7878.85 L 10175.20 7878.85 Z M 10224.70 7825.56 C 10198.90 7832.19 10164.80 7844.03 10160.50 7855.87 C 10160.10 7856.96 10160.00 7858.15 10160.20 7859.29 C 10160.50 7860.42 10161.10 7861.46 10161.90 7862.27 C 10163.40 7864.71 10165.50 7866.72 10168.00 7868.10 C 10170.50 7869.47 10173.30 7870.15 10176.10 7870.08 C 10188.70 7869.37 10206.40 7853.03 10224.70 7825.56 Z" fill="#429cfd" fill-rule="nonzero" node-id="376" stroke="none" target-height="64.33008" target-width="87.40039" target-x="10151.1" target-y="7814.52"></path><path d="M 10214.00 7825.56 C 10190.30 7825.56 10160.70 7819.64 10152.00 7806.86 C 10150.00 7803.95 10149.10 7800.46 10149.40 7796.97 C 10149.70 7793.49 10151.20 7790.21 10153.60 7787.67 C 10155.70 7785.03 10158.30 7782.87 10161.30 7781.31 C 10164.30 7779.76 10167.60 7778.86 10170.90 7778.68 L 10172.80 7778.68 C 10199.30 7778.68 10235.80 7814.43 10237.20 7815.85 C 10237.80 7816.39 10238.20 7817.07 10238.40 7817.82 C 10238.60 7818.57 10238.60 7819.37 10238.40 7820.12 C 10238.20 7820.85 10237.80 7821.51 10237.30 7822.05 C 10236.70 7822.59 10236.10 7822.98 10235.30 7823.20 C 10228.30 7824.88 10221.20 7825.67 10214.00 7825.56 Z M 10172.80 7787.44 L 10171.40 7787.44 C 10169.30 7787.51 10167.20 7788.06 10165.30 7789.04 C 10163.40 7790.02 10161.80 7791.42 10160.50 7793.12 C 10157.20 7797.62 10158.10 7800.22 10159.30 7801.88 C 10166.40 7812.78 10202.60 7818.93 10224.90 7816.33 C 10210.70 7801.86 10192.60 7791.82 10172.80 7787.44 Z" fill="#429cfd" fill-rule="nonzero" node-id="378" stroke="none" target-height="46.989746" target-width="89.5" target-x="10149.1" target-y="7778.68"></path><path d="M 8866.10 8342.75 C 8850.17 8344.16 8834.23 8340.16 8820.87 8331.39 C 8817.71 8328.92 8815.22 8325.70 8813.65 8322.01 C 8812.07 8318.32 8811.46 8314.30 8811.87 8310.31 C 8811.85 8307.93 8812.46 8305.59 8813.62 8303.51 C 8814.78 8301.44 8816.46 8299.70 8818.50 8298.47 C 8840.29 8285.68 8916.54 8323.57 8925.06 8327.83 C 8925.87 8328.26 8926.52 8328.91 8926.94 8329.72 C 8927.37 8330.52 8927.54 8331.43 8927.43 8332.33 C 8927.32 8333.22 8926.94 8334.06 8926.35 8334.73 C 8925.76 8335.41 8924.98 8335.89 8924.12 8336.12 C 8905.02 8340.12 8885.60 8342.34 8866.10 8342.75 Z M 8831.05 8304.39 C 8828.27 8304.21 8825.49 8304.79 8823.00 8306.05 C 8822.20 8306.47 8821.54 8307.13 8821.12 8307.93 C 8820.69 8308.73 8820.53 8309.65 8820.63 8310.55 C 8820.39 8313.22 8820.81 8315.91 8821.84 8318.38 C 8822.87 8320.85 8824.49 8323.04 8826.55 8324.76 C 8838.39 8334.94 8868.94 8336.60 8909.20 8329.97 C 8884.75 8317.15 8858.34 8308.50 8831.05 8304.39 Z" fill="#429cfd" fill-rule="nonzero" node-id="380" stroke="none" target-height="58.48047" target-width="116.08008" target-x="8811.46" target-y="8285.68"></path><path d="M 8923.17 8335.65 L 8921.51 8335.65 C 8897.83 8325.46 8852.13 8285.21 8855.44 8264.60 C 8855.44 8259.87 8859.70 8253.71 8871.54 8252.53 L 8875.10 8252.53 C 8916.30 8252.53 8926.96 8327.83 8927.43 8331.15 C 8927.54 8331.94 8927.44 8332.75 8927.15 8333.49 C 8926.86 8334.24 8926.39 8334.90 8925.77 8335.41 C 8924.94 8335.73 8924.04 8335.81 8923.17 8335.65 Z M 8875.81 8260.82 L 8873.20 8260.82 C 8865.62 8260.82 8865.15 8264.37 8865.15 8265.32 C 8863.26 8277.87 8894.51 8309.36 8918.20 8323.33 C 8913.46 8304.86 8901.38 8261.29 8874.86 8261.29 L 8875.81 8260.82 Z" fill="#429cfd" fill-rule="nonzero" node-id="382" stroke="none" target-height="83.2793" target-width="75.41016" target-x="8852.13" target-y="8252.53"></path><path d="M 8208.48 2398.63 L 8171.30 2395.31 C 8171.30 2395.31 8194.75 2419.47 8208.48 2398.63 Z" fill="#263238" fill-rule="nonzero" node-id="384" stroke="none" target-height="24.159912" target-width="37.180664" target-x="8171.3" target-y="2395.31"></path><path d="M 8371.17 3257.06 C 7974.99 3345.39 8097.42 3105.74 8121.10 3052.93 L 8131.04 3049.14 C 8178.41 3031.86 8187.88 3029.25 8250.87 3010.78 C 8360.79 2981.11 8472.69 2959.34 8585.72 2945.66 L 8609.40 2942.34 C 8633.08 2939.26 8654.63 2936.90 8676.41 2935.00 C 8691.10 2933.34 8705.78 2932.40 8719.75 2931.45 L 8767.11 2928.61 C 8775.16 2965.55 8794.82 3163.05 8371.17 3257.06 Z" fill="#e58a7b" fill-rule="nonzero" node-id="386" stroke="none" target-height="416.7798" target-width="819.8301" target-x="7974.99" target-y="2928.61"></path><path d="M 8993.03 4007.03 L 9039.20 4066.71 C 9042.76 4071.21 9037.78 4077.60 9029.26 4079.26 L 8255.84 4229.87 C 8249.21 4231.29 8243.06 4229.87 8241.87 4224.89 L 8222.22 4160.25 C 8222.22 4155.75 8226.01 4150.77 8233.11 4149.35 L 8980.00 4003.95 C 8982.25 4003.29 8984.64 4003.22 8986.92 4003.76 C 8989.21 4004.30 8991.31 4005.43 8993.03 4007.03 Z" fill="#26395a" fill-rule="nonzero" node-id="388" stroke="none" target-height="228.07007" target-width="820.54004" target-x="8222.22" target-y="4003.22"></path><path d="M 8908.96 4110.04 L 8929.09 4106.25 C 8933.11 4106.25 8935.72 4102.94 8935.01 4100.33 L 8908.96 4016.50 C 8908.96 4013.90 8904.22 4012.72 8900.20 4013.43 L 8880.31 4017.21 C 8876.28 4017.21 8873.68 4020.77 8874.39 4023.13 L 8900.44 4107.20 C 8901.15 4109.57 8905.17 4110.99 8908.96 4110.04 Z" fill="#429cfd" fill-rule="nonzero" node-id="390" stroke="none" target-height="98.27026" target-width="62.04004" target-x="8873.68" target-y="4012.72"></path><path d="M 8455.95 4389.48 L 8301.78 4332.17 L 8325.46 4478.75 C 8325.46 4478.75 8437.24 4519.01 8494.31 4467.39 L 8455.95 4389.48 Z" fill="#e58a7b" fill-rule="nonzero" node-id="392" stroke="none" target-height="186.83984" target-width="192.5293" target-x="8301.78" target-y="4332.17"></path><path d="M 8154.96 4371.00 L 8118.26 4467.15 L 8325.46 4478.75 L 8301.78 4332.17 L 8154.96 4371.00 Z" fill="#e58a7b" fill-rule="nonzero" node-id="394" stroke="none" target-height="146.58008" target-width="207.2002" target-x="8118.26" target-y="4332.17"></path><path d="M 8313.39 4226.08 L 8333.52 4222.29 C 8337.30 4222.29 8340.15 4218.97 8339.20 4216.37 L 8313.15 4132.54 C 8313.15 4129.93 8308.65 4128.75 8304.63 4129.46 L 8284.50 4133.25 C 8280.47 4133.25 8277.87 4136.80 8278.81 4139.17 L 8304.86 4223.24 C 8305.57 4225.60 8309.36 4227.03 8313.39 4226.08 Z" fill="#429cfd" fill-rule="nonzero" node-id="396" stroke="none" target-height="98.279785" target-width="62.280273" target-x="8277.87" target-y="4128.75"></path><path d="M 8611.29 4167.82 L 8631.18 4164.04 C 8635.21 4164.04 8637.82 4160.72 8637.10 4158.12 L 8611.06 4074.29 C 8611.06 4071.68 8606.32 4070.50 8602.29 4071.21 L 8582.40 4075.00 C 8578.38 4075.00 8575.77 4078.55 8576.48 4080.92 L 8602.53 4164.98 C 8603.48 4166.35 8604.85 4167.37 8606.43 4167.89 C 8608.01 4168.40 8609.72 4168.38 8611.29 4167.82 Z" fill="#429cfd" fill-rule="nonzero" node-id="398" stroke="none" target-height="97.8999" target-width="62.05078" target-x="8575.77" target-y="4070.5"></path><path d="M 8526.99 2851.64 C 8543.80 2845.25 8564.88 2904.45 8559.67 2912.03 C 8547.59 2929.32 8326.41 2989.70 8316.47 2955.84 C 8315.85 2937.48 8318.66 2919.17 8324.75 2901.85 C 8331.15 2890.48 8380.17 2911.32 8526.99 2851.64 Z" fill="#429cfd" fill-rule="nonzero" node-id="400" stroke="none" target-height="144.44995" target-width="249.03027" target-x="8315.85" target-y="2845.25"></path><path d="M 8489.57 2853.06 C 8498.10 2833.41 8522.49 2801.91 8543.80 2819.91 C 8565.11 2837.91 8574.11 2876.75 8560.14 2883.14 C 8546.17 2889.53 8474.89 2885.98 8489.57 2853.06 Z" fill="#429cfd" fill-rule="nonzero" node-id="402" stroke="none" target-height="87.62012" target-width="99.2207" target-x="8474.89" target-y="2801.91"></path><path d="M 8534.80 2863.25 C 8549.48 2847.62 8582.16 2826.07 8597.08 2850.22 C 8612.00 2874.38 8606.55 2913.92 8591.40 2915.11 C 8576.24 2916.29 8509.94 2889.06 8534.80 2863.25 Z" fill="#429cfd" fill-rule="nonzero" node-id="404" stroke="none" target-height="90.21997" target-width="102.05957" target-x="8509.94" target-y="2826.07"></path><path d="M 8542.85 2859.69 C 8541.66 2847.10 8544.13 2834.44 8549.97 2823.22 C 8555.81 2812.00 8564.77 2802.71 8575.77 2796.47 C 8602.77 2778.94 8629.05 2767.58 8639.47 2749.11 C 8643.96 2766.42 8644.85 2784.48 8642.08 2802.15 C 8636.63 2827.49 8552.56 2846.91 8558.25 2868.93 L 8542.85 2859.69 Z" fill="#429cfd" fill-rule="nonzero" node-id="406" stroke="none" target-height="119.819824" target-width="103.18945" target-x="8541.66" target-y="2749.11"></path><path d="M 8539.30 2858.51 C 8531.46 2848.57 8526.66 2836.58 8525.48 2823.97 C 8524.31 2811.36 8526.80 2798.69 8532.67 2787.47 C 8545.46 2758.10 8561.56 2734.42 8560.62 2713.58 C 8573.77 2725.70 8584.33 2740.36 8591.64 2756.68 C 8600.64 2780.36 8540.72 2842.64 8557.54 2858.27 L 8539.30 2858.51 Z" fill="#429cfd" fill-rule="nonzero" node-id="408" stroke="none" target-height="144.92993" target-width="76.33008" target-x="8524.31" target-y="2713.58"></path><path d="M 10186.30 7484.56 C 10185.80 7484.54 10185.30 7484.40 10184.90 7484.16 C 10184.50 7483.91 10184.20 7483.56 10183.90 7483.14 C 10178.50 7475.56 9637.14 6703.09 9438.70 6024.40 C 9309.19 5589.05 9209.66 5145.34 9140.80 4696.38 C 9099.83 4443.47 9074.96 4290.73 8993.50 4165.46 C 8992.95 4164.88 8992.64 4164.12 8992.64 4163.32 C 8992.64 4162.53 8992.95 4161.77 8993.50 4161.19 C 8994.06 4160.71 8994.77 4160.44 8995.51 4160.44 C 8996.25 4160.44 8996.97 4160.71 8997.53 4161.19 C 9079.94 4287.65 9104.80 4440.86 9145.77 4694.48 C 9214.95 5142.80 9314.64 5585.87 9444.15 6020.61 C 9642.35 6698.36 10183.20 7469.88 10188.70 7477.69 C 10189.10 7478.27 10189.40 7478.98 10189.40 7479.70 C 10189.40 7480.43 10189.10 7481.14 10188.70 7481.72 C 10188.60 7482.38 10188.40 7483.02 10188.00 7483.53 C 10187.50 7484.05 10187.00 7484.41 10186.30 7484.56 Z" fill="#429cfd" fill-rule="nonzero" node-id="410" stroke="none" target-height="3324.12" target-width="1196.7607" target-x="8992.64" target-y="4160.44"></path><path d="M 10186.30 7484.56 C 10185.80 7484.54 10185.30 7484.40 10184.90 7484.16 C 10184.50 7483.91 10184.20 7483.56 10183.90 7483.14 C 10178.50 7475.56 9637.14 6703.09 9438.70 6024.40 C 9309.19 5589.05 9209.66 5145.34 9140.80 4696.38 C 9099.83 4443.47 9074.96 4290.73 8993.50 4165.46 C 8992.95 4164.88 8992.64 4164.12 8992.64 4163.32 C 8992.64 4162.53 8992.95 4161.77 8993.50 4161.19 C 8994.06 4160.71 8994.77 4160.44 8995.51 4160.44 C 8996.25 4160.44 8996.97 4160.71 8997.53 4161.19 C 9079.94 4287.65 9104.80 4440.86 9145.77 4694.48 C 9214.95 5142.80 9314.64 5585.87 9444.15 6020.61 C 9642.35 6698.36 10183.20 7469.88 10188.70 7477.69 C 10189.10 7478.27 10189.40 7478.98 10189.40 7479.70 C 10189.40 7480.43 10189.10 7481.14 10188.70 7481.72 C 10188.60 7482.38 10188.40 7483.02 10188.00 7483.53 C 10187.50 7484.05 10187.00 7484.41 10186.30 7484.56 Z" fill="#000000" fill-opacity="0.4" fill-rule="nonzero" group-id="8" node-id="414" stroke="none" target-height="3324.12" target-width="1196.7607" target-x="8992.64" target-y="4160.44"></path><path d="M 9185.79 8054.56 L 8823.95 8101.44 L 8800.26 8000.56 L 9177.03 7920.76 L 9185.79 8054.56 Z" fill="#429cfd" fill-rule="nonzero" node-id="417" stroke="none" target-height="180.68018" target-width="385.53027" target-x="8800.26" target-y="7920.76"></path><path d="M 10295.00 7473.43 L 10028.10 7627.59 L 9938.13 7550.63 L 10230.10 7353.13 L 10295.00 7473.43 Z" fill="#429cfd" fill-rule="nonzero" node-id="419" stroke="none" target-height="274.45996" target-width="356.87012" target-x="9938.13" target-y="7353.13"></path><path d="M 9042.52 3176.31 C 9055.31 3242.14 9062.65 3304.19 9069.75 3368.36 C 9076.86 3432.54 9079.46 3496.00 9081.36 3560.17 C 9083.24 3624.85 9081.82 3689.59 9077.09 3754.12 C 9074.49 3786.56 9071.65 3819.01 9067.15 3851.69 C 9065.25 3867.79 9063.12 3884.13 9060.04 3900.47 L 9051.28 3950.67 C 9041.57 3991.59 9023.78 4030.16 8998.95 4064.10 C 8978.58 4092.66 8956.10 4119.65 8931.69 4144.85 C 8886.00 4191.79 8836.93 4235.33 8784.87 4275.10 C 8684.17 4352.63 8577.61 4422.23 8466.13 4483.25 L 8415.45 4404.63 C 8462.81 4366.98 8510.17 4328.14 8557.54 4288.60 C 8604.90 4249.05 8649.89 4209.03 8693.23 4167.35 C 8736.05 4127.23 8776.46 4084.61 8814.24 4039.71 C 8831.59 4018.93 8847.41 3996.93 8861.60 3973.88 C 8872.78 3957.08 8880.81 3938.38 8885.28 3918.70 C 8892.98 3861.22 8897.49 3803.35 8898.78 3745.36 C 8898.78 3715.76 8898.78 3686.16 8898.78 3656.56 C 8898.78 3626.95 8897.59 3596.88 8896.17 3567.04 C 8893.33 3507.37 8887.88 3448.64 8881.49 3388.02 C 8875.10 3327.39 8866.81 3267.48 8857.81 3211.36 L 9042.52 3176.31 Z" fill="#e58a7b" fill-rule="nonzero" node-id="421" stroke="none" target-height="1306.94" target-width="667.79004" target-x="8415.45" target-y="3176.31"></path><path d="M 9013.87 2975.02 C 9114.98 3056.96 9090.83 3300.40 9090.83 3300.40 L 8749.82 3412.64 C 8749.82 3412.64 8765.45 3132.03 8782.50 3031.15 C 8802.40 2911.08 8914.17 2894.27 9013.87 2975.02 Z" fill="#429cfd" fill-rule="nonzero" node-id="423" stroke="none" target-height="518.3699" target-width="365.16016" target-x="8749.82" target-y="2894.27"></path><path d="M 9013.87 2975.02 C 9114.98 3056.96 9090.83 3300.40 9090.83 3300.40 L 8749.82 3412.64 C 8749.82 3412.64 8765.45 3132.03 8782.50 3031.15 C 8802.40 2911.08 8914.17 2894.27 9013.87 2975.02 Z" fill="#000000" fill-opacity="0.2" fill-rule="nonzero" group-id="9" node-id="427" stroke="none" target-height="518.3699" target-width="365.16016" target-x="8749.82" target-y="2894.27"></path><path d="M 4509.06 3990.93 C 4495.83 3933.51 4463.52 3882.27 4417.42 3845.59 C 4371.31 3808.90 4314.13 3788.93 4255.20 3788.93 L 2360.74 3788.93 C 2291.65 3788.93 2225.40 3816.38 2176.55 3865.23 C 2127.69 3914.08 2100.25 3980.33 2100.25 4049.42 L 2100.25 8260.34 C 2100.25 8329.43 2127.69 8395.69 2176.55 8444.54 C 2225.40 8493.39 2291.65 8520.83 2360.74 8520.83 L 8375.67 8520.83 C 8444.75 8520.83 8511.01 8493.39 8559.86 8444.54 C 8608.71 8395.69 8636.16 8329.43 8636.16 8260.34 L 8636.16 4723.14 C 8636.16 4654.05 8608.71 4587.80 8559.86 4538.95 C 8511.01 4490.10 8444.75 4462.65 8375.67 4462.65 L 5101.79 4462.65 C 4964.20 4462.67 4830.67 4416.04 4723.01 4330.36 C 4615.35 4244.67 4539.92 4125.02 4509.06 3990.93 Z" fill="#429cfd" fill-rule="nonzero" node-id="430" stroke="none" target-height="4731.9004" target-width="6535.91" target-x="2100.25" target-y="3788.93"></path><path d="M 4509.06 3990.93 C 4495.83 3933.51 4463.52 3882.27 4417.42 3845.59 C 4371.31 3808.90 4314.13 3788.93 4255.20 3788.93 L 2360.74 3788.93 C 2291.65 3788.93 2225.40 3816.38 2176.55 3865.23 C 2127.69 3914.08 2100.25 3980.33 2100.25 4049.42 L 2100.25 8260.34 C 2100.25 8329.43 2127.69 8395.69 2176.55 8444.54 C 2225.40 8493.39 2291.65 8520.83 2360.74 8520.83 L 8375.67 8520.83 C 8444.75 8520.83 8511.01 8493.39 8559.86 8444.54 C 8608.71 8395.69 8636.16 8329.43 8636.16 8260.34 L 8636.16 4723.14 C 8636.16 4654.05 8608.71 4587.80 8559.86 4538.95 C 8511.01 4490.10 8444.75 4462.65 8375.67 4462.65 L 5101.79 4462.65 C 4964.20 4462.67 4830.67 4416.04 4723.01 4330.36 C 4615.35 4244.67 4539.92 4125.02 4509.06 3990.93 Z" fill="#000000" fill-opacity="0.6" fill-rule="nonzero" group-id="10" node-id="434" stroke="none" target-height="4731.9004" target-width="6535.91" target-x="2100.25" target-y="3788.93"></path><path d="M 3840.32 2679.48 L 4009.16 3226.27 C 4030.71 3295.87 4079.01 3354.06 4143.43 3388.07 C 4207.86 3422.08 4283.15 3429.13 4352.77 3407.67 L 4899.32 3238.83 L 3840.32 2679.48 Z" fill="#429cfd" fill-opacity="0.22" fill-rule="nonzero" group-id="11" node-id="439" stroke="none" target-height="749.6499" target-width="1058.9998" target-x="3840.32" target-y="2679.48"></path><path d="M 3840.32 2679.48 L 1886.65 3283.11 C 1852.16 3293.70 1820.10 3310.99 1792.30 3333.99 C 1764.50 3356.99 1741.51 3385.24 1724.64 3417.14 C 1707.77 3449.03 1697.35 3483.93 1693.99 3519.85 C 1690.62 3555.78 1694.37 3592.01 1705.02 3626.48 L 2820.38 7237.33 C 2831.03 7271.81 2848.36 7303.85 2871.39 7331.62 C 2894.42 7359.40 2922.70 7382.37 2954.61 7399.21 C 2986.52 7416.06 3021.43 7426.45 3057.36 7429.80 C 3093.29 7433.15 3129.52 7429.38 3163.99 7418.73 L 5664.45 6646.26 C 5698.92 6635.64 5730.95 6618.33 5758.73 6595.32 C 5786.50 6572.31 5809.47 6544.06 5826.31 6512.17 C 5843.16 6480.28 5853.56 6445.38 5856.91 6409.47 C 5860.26 6373.56 5856.50 6337.34 5845.85 6302.89 L 4898.61 3238.83 L 3840.32 2679.48 Z" fill="#429cfd" fill-rule="nonzero" node-id="442" stroke="none" target-height="4753.67" target-width="4169.6396" target-x="1690.62" target-y="2679.48"></path><path d="M 3840.32 2679.48 L 1886.65 3283.11 C 1852.16 3293.70 1820.10 3310.99 1792.30 3333.99 C 1764.50 3356.99 1741.51 3385.24 1724.64 3417.14 C 1707.77 3449.03 1697.35 3483.93 1693.99 3519.85 C 1690.62 3555.78 1694.37 3592.01 1705.02 3626.48 L 2820.38 7237.33 C 2831.03 7271.81 2848.36 7303.85 2871.39 7331.62 C 2894.42 7359.40 2922.70 7382.37 2954.61 7399.21 C 2986.52 7416.06 3021.43 7426.45 3057.36 7429.80 C 3093.29 7433.15 3129.52 7429.38 3163.99 7418.73 L 5664.45 6646.26 C 5698.92 6635.64 5730.95 6618.33 5758.73 6595.32 C 5786.50 6572.31 5809.47 6544.06 5826.31 6512.17 C 5843.16 6480.28 5853.56 6445.38 5856.91 6409.47 C 5860.26 6373.56 5856.50 6337.34 5845.85 6302.89 L 4898.61 3238.83 L 3840.32 2679.48 Z" fill="#ffffff" fill-opacity="0.8" fill-rule="nonzero" group-id="12" node-id="446" stroke="none" target-height="4753.67" target-width="4169.6396" target-x="1690.62" target-y="2679.48"></path><path d="M 4891.51 6488.54 L 3266.06 6990.58 C 3235.66 6999.91 3202.80 6996.84 3174.67 6982.01 C 3146.53 6967.19 3125.41 6941.83 3115.92 6911.48 C 3106.67 6881.09 3109.81 6848.26 3124.68 6820.18 C 3139.54 6792.09 3164.91 6771.03 3195.25 6761.58 L 4820.70 6259.31 C 4851.13 6249.99 4884.02 6253.10 4912.16 6267.97 C 4940.30 6282.84 4961.40 6308.25 4970.84 6338.65 C 4980.09 6369.04 4976.95 6401.87 4962.08 6429.95 C 4947.22 6458.04 4921.85 6479.10 4891.51 6488.54 Z" fill="#429cfd" fill-opacity="0.28" fill-rule="nonzero" group-id="13" node-id="451" stroke="none" target-height="749.9199" target-width="1873.4199" target-x="3106.67" target-y="6249.99"></path><path d="M 3142.21 3542.18 L 2282.59 3807.64 C 2252.20 3816.91 2219.37 3813.80 2191.25 3798.99 C 2163.13 3784.18 2142.00 3758.86 2132.46 3728.55 C 2123.20 3698.12 2126.34 3665.26 2141.20 3637.14 C 2156.06 3609.01 2181.43 3587.90 2211.79 3578.41 L 3071.40 3312.95 C 3101.80 3303.55 3134.69 3306.59 3162.84 3321.42 C 3190.99 3336.26 3212.10 3361.65 3221.54 3392.04 C 3230.80 3422.47 3227.66 3455.33 3212.80 3483.45 C 3197.94 3511.57 3172.56 3532.68 3142.21 3542.18 Z" fill="#429cfd" fill-opacity="0.28" fill-rule="nonzero" group-id="14" node-id="456" stroke="none" target-height="513.35986" target-width="1107.6001" target-x="2123.2" target-y="3303.55"></path><path d="M 3843.63 3823.74 L 2422.78 4262.55 C 2392.45 4271.66 2359.74 4268.44 2331.77 4253.59 C 2303.79 4238.74 2282.80 4213.45 2273.36 4183.22 C 2264.03 4152.85 2267.11 4120.03 2281.94 4091.93 C 2296.76 4063.83 2322.12 4042.76 2352.45 4033.32 L 3773.30 3594.51 C 3803.70 3585.18 3836.56 3588.26 3864.69 3603.08 C 3892.82 3617.90 3913.95 3643.26 3923.44 3673.61 C 3932.61 3704.10 3929.38 3736.98 3914.43 3765.10 C 3899.49 3793.22 3874.04 3814.29 3843.63 3823.74 Z" fill="#429cfd" fill-opacity="0.28" fill-rule="nonzero" group-id="15" node-id="461" stroke="none" target-height="686.4802" target-width="1668.5801" target-x="2264.03" target-y="3585.18"></path><path d="M 4636.94 4076.89 L 2563.45 4716.27 C 2533.08 4725.60 2500.26 4722.52 2472.16 4707.69 C 2444.06 4692.87 2422.99 4667.51 2413.55 4637.18 C 2404.28 4606.78 2407.39 4573.95 2422.20 4545.83 C 2437.01 4517.72 2462.33 4496.59 2492.64 4487.04 L 4566.13 3847.66 C 4596.50 3838.40 4629.30 3841.51 4657.38 3856.33 C 4685.46 3871.14 4706.54 3896.46 4716.03 3926.75 C 4725.37 3957.15 4722.29 3990.01 4707.47 4018.14 C 4692.65 4046.28 4667.29 4067.40 4636.94 4076.89 Z" fill="#429cfd" fill-opacity="0.28" fill-rule="nonzero" group-id="16" node-id="466" stroke="none" target-height="887.2002" target-width="2321.09" target-x="2404.28" target-y="3838.4"></path><path d="M 4777.37 4531.56 L 3572.01 4904.06 C 3541.62 4913.32 3508.79 4910.17 3480.71 4895.30 C 3452.62 4880.44 3431.56 4855.07 3422.11 4824.73 C 3412.85 4794.36 3415.97 4761.57 3430.78 4733.49 C 3445.60 4705.41 3470.91 4684.32 3501.21 4674.83 L 4706.56 4302.33 C 4736.99 4293.13 4769.82 4296.31 4797.93 4311.16 C 4826.03 4326.01 4847.15 4351.34 4856.70 4381.66 C 4865.95 4412.06 4862.81 4444.88 4847.94 4472.97 C 4833.08 4501.05 4807.71 4522.12 4777.37 4531.56 Z" fill="#429cfd" fill-opacity="0.28" fill-rule="nonzero" group-id="17" node-id="471" stroke="none" target-height="620.18994" target-width="1453.1001" target-x="3412.85" target-y="4293.13"></path><path d="M 3019.30 5074.80 L 2704.11 5172.13 C 2673.71 5181.47 2640.86 5178.39 2612.72 5163.56 C 2584.59 5148.74 2563.47 5123.39 2553.97 5093.03 C 2544.65 5062.61 2547.76 5029.72 2562.63 5001.58 C 2577.50 4973.44 2602.91 4952.34 2633.31 4942.90 L 2948.50 4845.57 C 2978.90 4836.30 3011.73 4839.41 3039.84 4854.22 C 3067.96 4869.03 3089.09 4894.35 3098.63 4924.66 C 3107.83 4955.09 3104.66 4987.92 3089.81 5016.03 C 3074.96 5044.13 3049.62 5065.25 3019.30 5074.80 Z" fill="#429cfd" fill-opacity="0.28" fill-rule="nonzero" group-id="18" node-id="476" stroke="none" target-height="345.1704" target-width="563.1802" target-x="2544.65" target-y="4836.3"></path><path d="M 4918.03 4986.47 L 2844.54 5627.04 C 2814.14 5636.29 2781.32 5633.14 2753.23 5618.28 C 2725.15 5603.42 2704.08 5578.04 2694.64 5547.71 C 2685.31 5517.34 2688.39 5484.51 2703.22 5456.42 C 2718.04 5428.32 2743.40 5407.24 2773.73 5397.81 L 4847.22 4757.24 C 4877.59 4747.98 4910.39 4751.09 4938.47 4765.91 C 4966.55 4780.72 4987.63 4806.04 4997.12 4836.33 C 5006.46 4866.73 5003.38 4899.59 4988.56 4927.72 C 4973.74 4955.86 4948.38 4976.98 4918.03 4986.47 Z" fill="#429cfd" fill-opacity="0.28" fill-rule="nonzero" group-id="19" node-id="481" stroke="none" target-height="888.31006" target-width="2321.15" target-x="2685.31" target-y="4747.98"></path><path d="M 4258.28 5688.37 L 2984.97 6081.71 C 2954.60 6090.97 2921.80 6087.86 2893.72 6073.04 C 2865.64 6058.23 2844.56 6032.91 2835.07 6002.62 C 2825.79 5972.22 2828.90 5939.39 2843.72 5911.27 C 2858.53 5883.15 2883.85 5862.02 2914.16 5852.48 L 4187.48 5459.14 C 4217.91 5449.88 4250.76 5453.02 4278.89 5467.88 C 4307.01 5482.74 4328.12 5508.11 4337.61 5538.47 C 4346.93 5568.87 4343.81 5601.72 4328.94 5629.82 C 4314.07 5657.93 4288.66 5678.98 4258.28 5688.37 Z" fill="#429cfd" fill-opacity="0.28" fill-rule="nonzero" group-id="20" node-id="486" stroke="none" target-height="641.09033" target-width="1521.1401" target-x="2825.79" target-y="5449.88"></path><path d="M 5058.46 5441.38 L 4718.64 5546.29 C 4688.21 5555.55 4655.35 5552.41 4627.23 5537.55 C 4599.11 5522.69 4578.00 5497.31 4568.50 5466.96 C 4559.25 5436.56 4562.40 5403.73 4577.26 5375.65 C 4592.12 5347.56 4617.49 5326.50 4647.83 5317.06 L 4987.65 5212.15 C 5018.02 5202.82 5050.85 5205.91 5078.94 5220.73 C 5107.04 5235.56 5128.11 5260.91 5137.55 5291.24 C 5146.89 5321.64 5143.81 5354.50 5128.99 5382.63 C 5114.17 5410.77 5088.81 5431.89 5058.46 5441.38 Z" fill="#429cfd" fill-opacity="0.28" fill-rule="nonzero" group-id="21" node-id="491" stroke="none" target-height="352.72998" target-width="587.64014" target-x="4559.25" target-y="5202.82"></path><path d="M 5198.89 5896.53 L 3125.87 6535.91 C 3095.44 6545.23 3062.55 6542.12 3034.41 6527.25 C 3006.27 6512.38 2985.17 6486.97 2975.73 6456.58 C 2966.41 6426.18 2969.53 6393.33 2984.40 6365.22 C 2999.27 6337.12 3024.69 6316.07 3055.06 6306.68 L 5128.32 5666.11 C 5158.75 5656.91 5191.57 5660.08 5219.68 5674.94 C 5247.79 5689.79 5268.90 5715.12 5278.45 5745.44 C 5283.21 5760.58 5284.92 5776.52 5283.49 5792.33 C 5282.06 5808.14 5277.52 5823.50 5270.12 5837.55 C 5262.73 5851.59 5252.63 5864.03 5240.40 5874.16 C 5228.17 5884.28 5214.06 5891.88 5198.89 5896.53 Z" fill="#429cfd" fill-opacity="0.28" fill-rule="nonzero" group-id="22" node-id="496" stroke="none" target-height="888.3198" target-width="2318.51" target-x="2966.41" target-y="5656.91"></path><path d="M 5243.41 1321.63 L 5863.37 2703.17 C 5879.46 2739.23 5880.63 2780.20 5866.61 2817.12 C 5852.58 2854.04 5824.52 2883.90 5788.54 2900.19 L 3158.55 4080.68 C 3122.49 4096.84 3081.50 4098.04 3044.56 4084.01 C 3007.62 4069.98 2977.76 4041.87 2961.52 4005.85 L 2341.32 2624.31 C 2325.09 2588.23 2323.85 2547.18 2337.89 2510.18 C 2351.92 2473.19 2380.07 2443.29 2416.15 2427.05 L 5046.14 1246.56 C 5082.27 1230.47 5123.30 1229.34 5160.26 1243.40 C 5197.22 1257.47 5227.11 1285.59 5243.41 1321.63 Z" fill="#429cfd" fill-rule="nonzero" node-id="499" stroke="none" target-height="2868.7002" target-width="3556.7798" target-x="2323.85" target-y="1229.34"></path><path d="M 5243.41 1321.63 L 5863.37 2703.17 C 5879.46 2739.23 5880.63 2780.20 5866.61 2817.12 C 5852.58 2854.04 5824.52 2883.90 5788.54 2900.19 L 3158.55 4080.68 C 3122.49 4096.84 3081.50 4098.04 3044.56 4084.01 C 3007.62 4069.98 2977.76 4041.87 2961.52 4005.85 L 2341.32 2624.31 C 2325.09 2588.23 2323.85 2547.18 2337.89 2510.18 C 2351.92 2473.19 2380.07 2443.29 2416.15 2427.05 L 5046.14 1246.56 C 5082.27 1230.47 5123.30 1229.34 5160.26 1243.40 C 5197.22 1257.47 5227.11 1285.59 5243.41 1321.63 Z" fill="#000000" fill-opacity="0.3" fill-rule="nonzero" group-id="23" node-id="503" stroke="none" target-height="2868.7002" target-width="3556.7798" target-x="2323.85" target-y="1229.34"></path><path d="M 4828.91 1253.36 L 4744.86 1291.06 L 4754.56 1312.67 L 4838.60 1274.97 L 4828.91 1253.36 Z" fill="#429cfd" fill-rule="nonzero" node-id="506" stroke="none" target-height="59.31006" target-width="93.740234" target-x="4744.86" target-y="1253.36"></path><path d="M 4627.15 1343.75 L 4365.06 1461.32 L 4374.75 1482.93 L 4636.84 1365.36 L 4627.15 1343.75 Z" fill="#429cfd" fill-rule="nonzero" node-id="508" stroke="none" target-height="139.18005" target-width="271.7798" target-x="4365.06" target-y="1343.75"></path><path d="M 2338.99 2763.54 L 2317.38 2773.24 L 2389.16 2933.11 L 2410.76 2923.41 L 2338.99 2763.54 Z" fill="#429cfd" fill-rule="nonzero" node-id="510" stroke="none" target-height="169.57007" target-width="93.38013" target-x="2317.38" target-y="2763.54"></path><path d="M 5155.31 1241.59 L 4477.09 2570.08 C 4414.16 2693.21 4311.10 2791.19 4184.94 2847.81 C 4058.78 2904.43 3917.07 2916.31 3783.25 2881.48 L 2339.90 2505.19 C 2354.71 2470.56 2381.90 2442.70 2416.15 2427.05 L 5046.14 1246.56 C 5080.59 1231.15 5119.60 1229.38 5155.31 1241.59 Z" fill="#429cfd" fill-opacity="0.6" fill-rule="nonzero" group-id="24" node-id="514" stroke="none" target-height="1686.93" target-width="2815.4102" target-x="2339.9" target-y="1229.38"></path><path d="M 6087.63 2941.87 L 4046.81 3067.85 C 4010.76 3069.99 3975.48 3079.23 3943.00 3095.02 C 3910.52 3110.81 3881.47 3132.86 3857.51 3159.89 C 3833.56 3186.92 3815.17 3218.41 3803.41 3252.56 C 3791.64 3286.71 3786.72 3322.84 3788.93 3358.89 L 4021.71 7130.77 C 4023.88 7166.85 4033.15 7202.14 4048.99 7234.63 C 4064.82 7267.11 4086.92 7296.16 4114.00 7320.09 C 4141.08 7344.03 4172.61 7362.38 4206.80 7374.11 C 4240.99 7385.83 4277.15 7390.69 4313.22 7388.42 L 6925.22 7227.15 C 6961.23 7224.98 6996.46 7215.72 7028.89 7199.91 C 7061.32 7184.10 7090.31 7162.04 7114.21 7135.00 C 7138.10 7107.97 7156.42 7076.48 7168.12 7042.35 C 7179.82 7008.22 7184.67 6972.12 7182.39 6936.11 L 6985.84 3735.18 L 6087.63 2941.87 Z" fill="#429cfd" fill-rule="nonzero" node-id="517" stroke="none" target-height="4448.82" target-width="3397.95" target-x="3786.72" target-y="2941.87"></path><path d="M 6087.63 2941.87 L 4046.81 3067.85 C 4010.76 3069.99 3975.48 3079.23 3943.00 3095.02 C 3910.52 3110.81 3881.47 3132.86 3857.51 3159.89 C 3833.56 3186.92 3815.17 3218.41 3803.41 3252.56 C 3791.64 3286.71 3786.72 3322.84 3788.93 3358.89 L 4021.71 7130.77 C 4023.88 7166.85 4033.15 7202.14 4048.99 7234.63 C 4064.82 7267.11 4086.92 7296.16 4114.00 7320.09 C 4141.08 7344.03 4172.61 7362.38 4206.80 7374.11 C 4240.99 7385.83 4277.15 7390.69 4313.22 7388.42 L 6925.22 7227.15 C 6961.23 7224.98 6996.46 7215.72 7028.89 7199.91 C 7061.32 7184.10 7090.31 7162.04 7114.21 7135.00 C 7138.10 7107.97 7156.42 7076.48 7168.12 7042.35 C 7179.82 7008.22 7184.67 6972.12 7182.39 6936.11 L 6985.84 3735.18 L 6087.63 2941.87 Z" fill="#ffffff" fill-opacity="0.8" fill-rule="nonzero" group-id="25" node-id="521" stroke="none" target-height="4448.82" target-width="3397.95" target-x="3786.72" target-y="2941.87"></path><path d="M 6211.00 6891.12 L 4512.85 6996.03 C 4481.13 6997.84 4449.97 6987.03 4426.19 6965.96 C 4402.41 6944.88 4387.93 6915.25 4385.92 6883.54 C 4384.10 6851.83 4394.87 6820.69 4415.89 6796.87 C 4436.91 6773.06 4466.48 6758.51 4498.17 6756.38 L 6196.32 6651.71 C 6228.05 6649.83 6259.23 6660.57 6283.05 6681.60 C 6306.88 6702.64 6321.42 6732.24 6323.49 6763.95 C 6325.37 6795.72 6314.59 6826.93 6293.50 6850.76 C 6272.42 6874.60 6242.76 6889.11 6211.00 6891.12 Z" fill="#429cfd" fill-opacity="0.22" fill-rule="nonzero" group-id="26" node-id="526" stroke="none" target-height="348.00977" target-width="1941.27" target-x="4384.1" target-y="6649.83"></path><path d="M 5205.99 3615.59 L 4307.78 3670.53 C 4276.07 3672.35 4244.92 3661.58 4221.11 3640.56 C 4197.30 3619.54 4182.74 3589.97 4180.61 3558.28 C 4178.79 3526.53 4189.60 3495.35 4210.67 3471.53 C 4231.73 3447.71 4261.36 3433.19 4293.10 3431.11 L 5191.31 3375.70 C 5223.01 3373.82 5254.16 3384.58 5277.95 3405.61 C 5301.74 3426.65 5316.23 3456.26 5318.24 3487.95 C 5320.25 3519.75 5309.56 3551.05 5288.52 3574.99 C 5267.47 3598.92 5237.79 3613.52 5205.99 3615.59 Z" fill="#429cfd" fill-opacity="0.22" fill-rule="nonzero" group-id="27" node-id="531" stroke="none" target-height="298.53003" target-width="1141.46" target-x="4178.79" target-y="3373.82"></path><path d="M 5821.22 4054.63 L 4337.14 4146.04 C 4305.40 4147.98 4274.18 4137.26 4250.34 4116.21 C 4226.50 4095.17 4211.98 4065.53 4209.97 4033.79 C 4208.09 4002.03 4218.87 3970.81 4239.96 3946.98 C 4261.04 3923.15 4290.70 3908.64 4322.46 3906.63 L 5806.30 3815.22 C 5838.04 3813.27 5869.25 3824.00 5893.09 3845.04 C 5916.94 3866.09 5931.45 3895.73 5933.46 3927.46 C 5935.35 3959.19 5924.60 3990.37 5903.57 4014.20 C 5882.53 4038.02 5852.93 4052.56 5821.22 4054.63 Z" fill="#429cfd" fill-opacity="0.22" fill-rule="nonzero" group-id="28" node-id="536" stroke="none" target-height="334.70996" target-width="1727.2603" target-x="4208.09" target-y="3813.27"></path><path d="M 6532.35 4487.75 L 4366.50 4621.31 C 4334.68 4623.26 4303.38 4612.52 4279.45 4591.43 C 4255.53 4570.35 4240.94 4540.65 4238.87 4508.83 C 4236.98 4477.13 4247.74 4445.97 4268.78 4422.18 C 4289.81 4398.40 4319.42 4383.91 4351.11 4381.90 L 6517.20 4248.10 C 6548.92 4246.29 6580.07 4257.10 6603.86 4278.17 C 6627.64 4299.25 6642.11 4328.87 6644.13 4360.59 C 6646.01 4392.23 6635.33 4423.35 6614.40 4447.16 C 6593.47 4470.97 6563.98 4485.56 6532.35 4487.75 Z" fill="#429cfd" fill-opacity="0.22" fill-rule="nonzero" group-id="29" node-id="541" stroke="none" target-height="376.96973" target-width="2409.0298" target-x="4236.98" target-y="4246.29"></path><path d="M 6561.72 4962.79 L 5302.61 5040.46 C 5270.88 5042.35 5239.70 5031.60 5215.88 5010.57 C 5192.05 4989.53 5177.51 4959.93 5175.44 4928.22 C 5173.50 4896.48 5184.22 4865.26 5205.27 4841.42 C 5226.31 4817.58 5255.95 4803.06 5287.69 4801.05 L 6546.80 4723.38 C 6578.54 4721.43 6609.75 4732.16 6633.59 4753.20 C 6657.44 4774.25 6671.95 4803.89 6673.96 4835.62 C 6675.85 4867.35 6665.10 4898.53 6644.07 4922.36 C 6623.04 4946.18 6593.43 4960.72 6561.72 4962.79 Z" fill="#429cfd" fill-opacity="0.22" fill-rule="nonzero" group-id="30" node-id="546" stroke="none" target-height="320.91992" target-width="1502.3501" target-x="5173.5" target-y="4721.43"></path><path d="M 4725.03 5075.98 L 4395.63 5096.35 C 4363.93 5098.23 4332.78 5087.47 4308.99 5066.44 C 4285.20 5045.40 4270.71 5015.79 4268.70 4984.10 C 4266.82 4952.38 4277.57 4921.20 4298.60 4897.37 C 4319.63 4873.54 4349.24 4859.01 4380.95 4856.94 L 4710.35 4836.57 C 4742.10 4834.75 4773.28 4845.56 4797.10 4866.62 C 4820.92 4887.69 4835.44 4917.32 4837.52 4949.05 C 4839.33 4980.78 4828.52 5011.93 4807.45 5035.71 C 4786.37 5059.49 4756.74 5073.97 4725.03 5075.98 Z" fill="#429cfd" fill-opacity="0.22" fill-rule="nonzero" group-id="31" node-id="551" stroke="none" target-height="263.47998" target-width="572.51025" target-x="4266.82" target-y="4834.75"></path><path d="M 6591.08 5437.83 L 4425.00 5571.39 C 4393.27 5573.27 4362.09 5562.52 4338.26 5541.49 C 4314.44 5520.46 4299.90 5490.85 4297.83 5459.14 C 4296.01 5427.39 4306.82 5396.21 4327.88 5372.39 C 4348.95 5348.57 4378.58 5334.05 4410.31 5331.97 L 6576.16 5198.41 C 6607.92 5196.53 6639.14 5207.31 6662.97 5228.40 C 6686.81 5249.48 6701.32 5279.14 6703.33 5310.90 C 6705.21 5342.60 6694.45 5373.75 6673.41 5397.54 C 6652.38 5421.33 6622.77 5435.82 6591.08 5437.83 Z" fill="#429cfd" fill-opacity="0.22" fill-rule="nonzero" group-id="32" node-id="556" stroke="none" target-height="376.74023" target-width="2409.2002" target-x="4296.01" target-y="5196.53"></path><path d="M 5784.51 5964.49 L 4454.36 6046.66 C 4422.61 6048.48 4391.43 6037.67 4367.61 6016.61 C 4343.79 5995.54 4329.27 5965.91 4327.19 5934.18 C 4325.38 5902.45 4336.19 5871.30 4357.26 5847.52 C 4378.34 5823.74 4407.97 5809.26 4439.68 5807.25 L 5769.83 5725.08 C 5801.55 5723.26 5832.71 5734.07 5856.49 5755.14 C 5880.27 5776.22 5894.75 5805.85 5896.76 5837.56 C 5898.70 5869.28 5887.97 5900.46 5866.92 5924.27 C 5845.87 5948.07 5816.23 5962.54 5784.51 5964.49 Z" fill="#429cfd" fill-opacity="0.22" fill-rule="nonzero" group-id="33" node-id="561" stroke="none" target-height="325.2202" target-width="1573.3203" target-x="4325.38" target-y="5723.26"></path><path d="M 6620.21 5913.10 L 6265.00 5934.89 C 6233.30 5936.77 6202.14 5926.01 6178.35 5904.97 C 6154.56 5883.94 6140.08 5854.33 6138.07 5822.64 C 6136.12 5790.90 6146.85 5759.68 6167.89 5735.84 C 6188.93 5712.00 6218.58 5697.48 6250.31 5695.47 L 6605.53 5673.69 C 6637.27 5671.74 6668.48 5682.47 6692.32 5703.51 C 6716.16 5724.56 6730.68 5754.20 6732.69 5785.93 C 6734.51 5817.68 6723.71 5848.86 6702.64 5872.68 C 6681.57 5896.50 6651.94 5911.03 6620.21 5913.10 Z" fill="#429cfd" fill-opacity="0.22" fill-rule="nonzero" group-id="34" node-id="566" stroke="none" target-height="265.0298" target-width="598.38965" target-x="6136.12" target-y="5671.74"></path><path d="M 6649.57 6388.14 L 4483.72 6521.70 C 4452.00 6523.58 4420.82 6512.83 4396.99 6491.80 C 4373.17 6470.77 4358.63 6441.16 4356.56 6409.45 C 4354.68 6377.73 4365.43 6346.55 4386.46 6322.72 C 4407.49 6298.89 4437.09 6284.36 4468.81 6282.28 L 6634.89 6148.72 C 6666.59 6146.84 6697.74 6157.60 6721.53 6178.64 C 6745.32 6199.67 6759.81 6229.28 6761.82 6260.97 C 6763.76 6292.71 6753.04 6323.93 6731.99 6347.77 C 6710.95 6371.61 6681.31 6386.13 6649.57 6388.14 Z" fill="#429cfd" fill-opacity="0.22" fill-rule="nonzero" group-id="35" node-id="571" stroke="none" target-height="376.74023" target-width="2409.0796" target-x="4354.68" target-y="6146.84"></path><path d="M 6087.63 2941.87 L 6122.91 3513.05 C 6125.11 3549.06 6134.39 3584.29 6150.21 3616.72 C 6166.03 3649.15 6188.08 3678.14 6215.11 3702.04 C 6242.13 3725.95 6273.60 3744.29 6307.72 3756.03 C 6341.84 3767.77 6377.94 3772.67 6413.95 3770.46 L 6985.84 3735.18 L 6087.63 2941.87 Z" fill="#429cfd" fill-opacity="0.22" fill-rule="nonzero" group-id="36" node-id="576" stroke="none" target-height="830.7998" target-width="898.20996" target-x="6087.63" target-y="2941.87"></path><path d="M 5419.36 4366.74 C 5419.00 4339.37 5413.16 4312.35 5402.18 4287.27 C 5391.20 4262.20 5375.31 4239.57 5355.44 4220.74 C 5335.57 4201.91 5312.13 4187.26 5286.50 4177.64 C 5260.88 4168.02 5233.58 4163.64 5206.23 4164.75 L 3309.39 4164.75 C 3165.65 4164.75 3025.22 4281.49 2998.23 4425.24 L 2249.68 8260.34 C 2221.73 8404.09 2315.51 8520.83 2459.25 8520.83 L 8474.18 8520.83 C 8617.92 8520.83 8757.17 8404.32 8785.35 8260.34 L 9402.71 5098.96 C 9430.65 4954.98 9336.87 4838.47 9193.13 4838.47 L 5920.20 4838.47 C 5636.03 4838.47 5429.06 4642.86 5419.36 4366.74 Z" fill="#429cfd" fill-opacity="0.5" fill-rule="nonzero" group-id="37" node-id="581" stroke="none" target-height="4357.19" target-width="7208.9204" target-x="2221.73" target-y="4163.64"></path></svg>