<?xml version="1.0" standalone="no"?><!DOCTYPE svg PUBLIC "-//W3C//DTD SVG 1.1//EN" "http://www.w3.org/Graphics/SVG/1.1/DTD/svg11.dtd"><svg t="1715091201488" class="icon" viewBox="0 0 1080 1024" version="1.1" xmlns="http://www.w3.org/2000/svg" p-id="54862" xmlns:xlink="http://www.w3.org/1999/xlink" width="210.9375" height="200"><path d="M984.974222 653.880889h38.912V559.104a135.907556 135.907556 0 0 0-2.275555-25.770667 53.930667 53.930667 0 0 0-8.078223-19.626666 36.977778 36.977778 0 0 0-15.644444-12.686223 62.577778 62.577778 0 0 0-25.6-4.551111 53.020444 53.020444 0 0 0-24.120889 6.087111 45.283556 45.283556 0 0 0-19.569778 19.569778v-21.333333h-37.376v152.689778h39.139556v-79.872a60.700444 60.700444 0 0 1 7.054222-33.450667 25.884444 25.884444 0 0 1 22.926222-10.24 20.764444 20.764444 0 0 1 19.512889 9.272889 56.32 56.32 0 0 1 5.12 28.558222v86.129778zM910.222222 967.111111v-170.894222H227.555556V967.111111h682.666666zM185.742222 590.165333h30.606222c10.638222 0.284444 21.219556-1.706667 31.118223-5.688889 8.021333-3.413333 15.189333-8.533333 20.935111-15.075555 5.404444-6.257778 9.443556-13.710222 11.776-21.731556 2.616889-8.135111 4.096-16.668444 4.266666-25.258666 0-8.476444-1.251556-16.896-3.697777-25.031111a61.895111 61.895111 0 0 0-11.776-21.560889A57.514667 57.514667 0 0 0 248.035556 460.8 75.662222 75.662222 0 0 0 216.917333 455.111111H142.904889v227.441778h42.837333v-92.387556zM298.951111 512l38.627556 153.770667c1.422222 2.844444 2.275556 5.973333 2.56 9.216a22.528 22.528 0 0 1-3.754667 12.344889 15.018667 15.018667 0 0 1-11.377778 6.428444 65.194667 65.194667 0 0 1-11.491555 0l-11.377778-1.194667v45.852445l11.946667 1.137778h11.946666c11.548444 0 32.711111-2.048 41.984-7.793778a51.882667 51.882667 0 0 0 17.635556-26.794667L444.302222 512H403.911111l-31.516444 113.493333L340.252444 512h-41.301333z m241.891556 110.193778a18.375111 18.375111 0 0 1-13.084445-3.527111 22.300444 22.300444 0 0 1-3.356444-14.108445V529.009778h29.184V501.191111h-28.387556v-45.795555H479.573333v45.795555h-23.495111v28.444445h22.926222v89.998222a41.756444 41.756444 0 0 0 3.470223 18.602666 27.534222 27.534222 0 0 0 9.784889 10.922667c4.380444 2.787556 15.758222 4.551111 20.821333 5.290667 5.688889 0.967111 11.377778 1.422222 17.066667 1.365333h11.776l10.922666-1.137778v-32.483555h-11.946666z m107.121777-92.216889a20.764444 20.764444 0 0 1 19.569778 9.216c3.982222 8.533333 5.688889 17.806222 5.12 27.192889v86.129778h39.139556V558.762667c0-8.533333-0.796444-17.066667-2.389334-25.429334a52.906667 52.906667 0 0 0-8.021333-19.626666 36.977778 36.977778 0 0 0-15.644444-12.686223 62.577778 62.577778 0 0 0-25.656889-4.551111 48.355556 48.355556 0 0 0-22.528 6.087111 46.193778 46.193778 0 0 0-19.569778 19.569778V442.88h-39.139556v210.602667h39.139556v-79.872a60.416 60.416 0 0 1 7.054222-33.450667 25.884444 25.884444 0 0 1 22.926222-10.24z m220.672 80.213333a100.693333 100.693333 0 0 0 5.233778-33.109333 101.546667 101.546667 0 0 0-5.233778-33.052445 67.413333 67.413333 0 0 0-38.001777-41.699555 78.791111 78.791111 0 0 0-30.321778-5.688889 76.515556 76.515556 0 0 0-30.151111 5.688889c-8.704 3.697778-16.497778 9.272889-22.926222 16.270222a70.144 70.144 0 0 0-14.791112 25.429333 97.450667 97.450667 0 0 0-5.347555 33.052445c-0.113778 11.264 1.706667 22.471111 5.290667 33.109333 3.242667 9.329778 8.305778 17.863111 14.848 25.258667 6.371556 6.997333 14.222222 12.515556 22.926222 16.042667 19.456 7.452444 41.016889 7.452444 60.472889 0 8.760889-3.584 16.668444-9.102222 23.096889-16.042667 6.656-7.281778 11.719111-15.928889 14.904888-25.258667zM227.555556 56.888889v284.501333h682.666666V227.441778h-205.255111a22.812444 22.812444 0 0 1-15.644444-6.087111 20.821333 20.821333 0 0 1-6.656-15.075556V56.945778H227.555556z m788.252444 284.501333c16.782222 0 34.133333 6.940444 46.364444 18.432 12.060444 11.377778 18.716444 25.315556 18.716445 43.463111v331.093334c-0.967111 34.133333-29.752889 62.691556-63.943111 61.781333H967.111111v185.287111a43.52 43.52 0 0 1-44.487111 42.268445H215.495111c-28.273778 0-44.828444-17.635556-44.828444-41.073778v-186.481778h-49.208889A62.122667 62.122667 0 0 1 56.888889 734.435556V402.033778c0.284444-16.327111 7.395556-31.516444 19.569778-42.382222 12.174222-11.434667 28.273778-18.318222 44.999111-18.204445h49.038222L170.666667 40.391111C170.666667 16.554667 190.691556 0 215.495111 0h520.533333c2.275556 0.568889 4.209778 1.137778 5.688889 1.820444a17.863111 17.863111 0 0 1 5.518223 4.209778l214.584888 211.569778a19.569778 19.569778 0 0 1 5.290667 13.653333 14.961778 14.961778 0 0 1 0 2.389334v107.804444h48.696889zM816.924444 532.48c4.323556 2.787556 7.964444 6.485333 10.581334 10.922667 2.389333 4.778667 3.982222 9.841778 4.664889 15.132444 1.422222 6.030222 2.218667 12.174222 2.389333 18.375111 0 5.973333-0.455111 11.946667-1.592889 17.806222a47.900444 47.900444 0 0 1-5.461333 15.473778 30.606222 30.606222 0 0 1-10.581334 10.922667 31.402667 31.402667 0 0 1-16.611555 4.152889 30.890667 30.890667 0 0 1-16.497778-4.152889 31.004444 31.004444 0 0 1-10.524444-10.922667 49.720889 49.720889 0 0 1-5.518223-15.473778 104.106667 104.106667 0 0 1 0-35.84 45.738667 45.738667 0 0 1 5.518223-15.473777 29.582222 29.582222 0 0 1 27.022222-15.246223 30.094222 30.094222 0 0 1 16.611555 4.323556z m-577.080888 6.371556a25.6 25.6 0 0 1-8.419556 9.614222 33.336889 33.336889 0 0 1-11.946667 4.551111 78.620444 78.620444 0 0 1-14.279111 1.137778h-19.456V491.121778h19.228445c4.835556 0 9.614222 0.341333 14.336 1.137778 4.266667 0.568889 8.476444 2.161778 12.117333 4.551111 3.584 2.389333 6.485333 5.688889 8.419556 9.557333a43.235556 43.235556 0 0 1 0 32.483556z" fill="#167CF3" p-id="54863"></path></svg>