<?xml version="1.0" standalone="no"?><!DOCTYPE svg PUBLIC "-//W3C//DTD SVG 1.1//EN" "http://www.w3.org/Graphics/SVG/1.1/DTD/svg11.dtd"><svg t="1715091058045" class="icon" viewBox="0 0 1024 1024" version="1.1" xmlns="http://www.w3.org/2000/svg" p-id="47651" xmlns:xlink="http://www.w3.org/1999/xlink" width="200" height="200"><path d="M0 0.002276m170.666287 0l682.66515 0q170.666287 0 170.666287 170.666287l0 682.66515q0 170.666287-170.666287 170.666287l-682.66515 0q-170.666287 0-170.666287-170.666287l0-682.66515q0-170.666287 170.666287-170.666287Z" fill="#C9EFEA" p-id="47652"></path><path d="M655.671432 579.072989c-2.645327-8.106649-5.51821-16.213297-8.561759-24.206169a847.927005 847.927005 0 0 1-17.151962 29.098602c8.760869-1.450663 17.351073-3.071993 25.713721-4.892433z m47.160784-12.373306c11.064864-3.498659 21.503952-7.310206 31.317264-11.463086 47.615894-19.9964 70.428288-42.638127 70.428288-57.45765 0-14.819523-22.755505-37.46125-70.428288-57.45765-10.239977-4.266657-20.70751-8.106649-31.317264-11.49153a653.168326 653.168326 0 0 1-26.823052 68.94918c10.239977 22.471061 19.199957 45.482566 26.823052 68.920736zM368.326293 416.484906c2.616883 7.964427 5.489766 16.042631 8.561758 24.206168 5.51821-9.813312 11.235531-19.512846 17.151962-29.098602-8.760869 1.450663-17.351073 3.071993-25.685276 4.892434h-0.056889z m-47.13234 12.344861c-11.093309 3.527103-21.532397 7.310206-31.345708 11.463086-47.615894 20.024844-70.428288 42.666572-70.428288 57.486094 0 14.847967 22.755505 37.489694 70.428288 57.45765 9.813312 4.181324 20.280844 8.021316 31.345708 11.49153a655.358544 655.358544 0 0 1 26.794607-68.94918c-10.239977-22.471061-19.199957-45.482566-26.794607-68.94918z m325.91572 11.889751c3.071993-8.191982 5.97332-16.270186 8.533314-24.234612-8.533314-1.82044-17.066629-3.44177-25.685276-4.892434 5.944876 9.585756 11.633752 19.342179 17.151962 29.127046z m-190.236022 150.698332c36.693252 2.673772 73.528725 2.673772 110.278866 0a728.574381 728.574381 0 0 0 55.125211-93.638903 728.574381 728.574381 0 0 0-55.125211-93.667347 760.773421 760.773421 0 0 0-110.30731 0A726.469497 726.469497 0 0 0 401.748441 497.778947a725.530832 725.530832 0 0 0 55.153655 93.667348z m-62.805193-7.452428c-5.916431-9.614201-11.662196-19.28529-17.180407-29.15549-3.071993 8.220426-5.944876 16.270186-8.533314 24.263057 8.334204 1.82044 16.924407 3.413326 25.685276 4.892433h0.028445z m135.11081-229.432379c-5.603543-6.599096-11.320864-13.084415-17.180406-19.399068-5.774209 6.200875-11.463086 12.686194-17.151962 19.399068 11.406197-0.255999 22.840838-0.255999 34.332368 0z m64.85319 3.982214c24.945722 2.53155 49.749223 6.456875 74.268279 11.747529 2.446217-11.150197 4.266657-21.987507 5.546654-32.426595 6.143986-50.431888-2.474661-81.066487-15.559076-88.49047-13.084415-7.395539-44.487012 0.625776-85.95892 31.03282-8.931536 6.599096-17.578628 13.56797-25.827498 20.906621 16.924407 18.17596 32.767927 37.262139 47.502116 57.20165v0.056889z m-116.565075-57.230095c-8.248871-7.33865-16.867518-14.307524-25.770609-20.906621-41.528797-30.435488-72.874505-38.485248-85.95892-31.03282-13.141304 7.423984-21.703063 38.058582-15.587521 88.547359 1.308442 10.382199 3.128882 21.219508 5.51821 32.369706a680.560265 680.560265 0 0 1 74.325168-11.719085 655.955876 655.955876 0 0 1 47.502117-57.258539h-0.028445z m237.965694 311.665085c18.773292 84.13848 8.903091 151.124998-32.739483 174.648501-41.699463 23.637281-105.784654-1.479108-170.666287-59.477202-64.938522 57.998093-129.023713 83.057593-170.666288 59.477202-41.699463-23.608836-51.569663-90.510021-32.824816-174.648501C224.852834 586.781416 170.666287 544.939731 170.666287 497.750503 170.666287 450.646607 224.852834 408.748034 308.536203 382.579203 289.791356 298.469168 299.661556 231.48265 341.332575 207.930702 383.003593 184.321866 447.088784 209.438255 511.998862 267.379459c64.910078-57.941205 128.995269-83.000704 170.666288-59.448757 41.671019 23.608836 51.541219 90.56691 32.824816 174.70539C799.144891 408.748034 853.331437 450.646607 853.331437 497.778947c0 47.217673-54.186546 89.030913-137.841471 115.228189h-0.056889v-0.056889z m-47.13234 12.373306c-24.519057 5.290655-49.322557 9.187535-74.268279 11.719085-14.791078 19.911067-30.606154 39.025691-47.530561 57.230095 8.647092 7.679983 17.237295 14.591968 25.770609 20.878176 41.528797 30.435488 72.902949 38.485248 86.015809 31.061264 13.084415-7.395539 21.674619-38.058582 15.587521-88.518915a363.917414 363.917414 0 0 0-5.546655-32.369705z m-238.307026 11.719085c-24.974167-2.559994-49.777667-6.485319-74.268279-11.74753-2.360884 10.666643-4.238213 21.475508-5.546655 32.369706-6.172431 50.460332 2.474661 81.123375 15.559077 88.547359 13.084415 7.395539 44.487012-0.654221 85.95892-31.089709 8.561759-6.257764 17.180406-13.255082 25.827498-20.878176a664.261635 664.261635 0 0 1-47.502116-57.20165h-0.028445z m64.853189 3.953769c5.688876 6.712874 11.377752 13.226637 17.151962 19.427512 5.774209-6.229319 11.49153-12.686194 17.180406-19.427512-11.434641 0.255999-22.897727 0.255999-34.332368 0zM511.998862 545.593952c-26.936829 0-48.753669-21.418619-48.753669-47.815005 0-26.42483 21.81684-47.78656 48.753669-47.78656s48.753669 21.36173 48.75367 47.78656c0 26.396386-21.81684 47.78656-48.75367 47.786561z" fill="#0CC8B0" p-id="47653"></path></svg>