<?xml version="1.0" standalone="no"?><!DOCTYPE svg PUBLIC "-//W3C//DTD SVG 1.1//EN" "http://www.w3.org/Graphics/SVG/1.1/DTD/svg11.dtd"><svg t="1715090848159" class="icon" viewBox="0 0 1024 1024" version="1.1" xmlns="http://www.w3.org/2000/svg" p-id="37223" xmlns:xlink="http://www.w3.org/1999/xlink" width="200" height="200"><path d="M198.4 64l-2.496 0.512a6.4 6.4 0 0 0-3.392 3.392L192 70.4v883.2l0.512 2.496a6.4 6.4 0 0 0 3.392 3.392L198.4 960H320v64H198.4a70.4 70.4 0 0 1-70.016-62.72L128 953.6V70.4A70.4 70.4 0 0 1 190.72 0.384L198.4 0h470.976c16 0 31.36 5.44 43.84 15.36l5.888 5.248 156.288 156.288a70.4 70.4 0 0 1 20.16 41.792l0.448 7.936V544h-64V256h-160a32 32 0 0 1-31.488-26.24L640 224V64H198.4z m601.28 551.36c42.368 0 74.176 9.344 101.44 31.872l8.96 8-42.24 41.728c-21.632-20.608-47.488-23.488-70.08-23.488-35.52 0-52.8 19.648-52.8 43.2 0 8.576 2.88 17.728 10.048 24.448a54.272 54.272 0 0 0 23.68 11.904l8.064 1.536 40.32 5.76c31.168 4.288 50.816 12.928 65.28 26.368 18.176 17.28 26.368 42.24 26.368 72.512 0 66.24-55.232 103.68-126.72 103.68-47.488 0-84.544-9.28-116.288-37.12l-8.512-8 43.2-43.2c21.632 21.632 50.88 28.8 82.56 28.8 39.36 0 60.48-14.848 60.48-42.24 0-12.032-3.392-22.08-10.56-28.8a43.712 43.712 0 0 0-22.976-10.688l-7.296-1.28-41.216-5.76c-29.312-4.352-50.944-13.44-66.304-28.352-16.32-16.32-24.448-38.4-24.448-67.2 0-60.928 45.12-103.68 119.04-103.68z m-156.032 2.88v59.52H554.368V960H487.68v-282.24H398.4v-59.52h245.248zM320 384v64H256V384h64z m0-128v64H256V256h64z m480-64L704 96V192h96zM320 128v64H256V128h64z" fill="#1296db" p-id="37224"></path></svg>