<?xml version="1.0" standalone="no"?><!DOCTYPE svg PUBLIC "-//W3C//DTD SVG 1.1//EN" "http://www.w3.org/Graphics/SVG/1.1/DTD/svg11.dtd"><svg t="1715090973657" class="icon" viewBox="0 0 1024 1024" version="1.1" xmlns="http://www.w3.org/2000/svg" p-id="40527" xmlns:xlink="http://www.w3.org/1999/xlink" width="200" height="200"><path d="M826.368 936.448H197.632c-32.768 0-58.88-26.624-58.88-58.88V146.432c0-32.768 26.624-58.88 58.88-58.88h461.312l225.792 228.864v561.152c0.512 32.768-26.112 58.88-58.368 58.88z" fill="#F0FFF8" p-id="40528"></path><path d="M671.744 56.832H197.632c-49.664 0-89.6 40.448-89.6 89.6v731.136c0 49.664 40.448 89.6 89.6 89.6h628.224c49.664 0 89.6-40.448 89.6-89.6V303.616l-243.712-246.784z m154.624 848.896H197.632c-15.36 0-28.16-12.8-28.16-28.16V146.432c0-15.36 12.8-28.16 28.16-28.16h445.952v153.6c0 32.768 26.624 58.88 58.88 58.88l151.552-1.536v548.864c0.512 15.36-12.288 27.648-27.648 27.648z" fill="#41B883" p-id="40529"></path><path d="M568.32 404.48h89.6L512 657.408 366.08 404.48h-97.28l243.2 421.376L755.2 404.48H568.32z m0 0" fill="#41B883" p-id="40530"></path><path d="M657.92 404.48H568.32l-56.32 97.28-56.32-97.28H366.08l145.92 252.928L657.92 404.48z m0 0" fill="#34495E" p-id="40531"></path></svg>